<?xml version="1.0" encoding="iso-8859-1"?>
<!-- Generator: Adobe Illustrator 16.0.0, SVG Export Plug-In . SVG Version: 6.00 Build 0)  -->
<!DOCTYPE svg PUBLIC "-//W3C//DTD SVG 1.0//EN" "http://www.w3.org/TR/2001/REC-SVG-20010904/DTD/svg10.dtd">
<svg version="1.0" id="Layer_1" xmlns="http://www.w3.org/2000/svg" xmlns:xlink="http://www.w3.org/1999/xlink" x="0px" y="0px"
	 width="500px" height="263px" viewBox="0 0 500 263" style="enable-background:new 0 0 500 263;" xml:space="preserve">
<g>
	<g>
		<path style="fill:#3F3D6F;" d="M1,143C1,96.333,1.013,49.667,0.949,3C0.947,1.267,1.267,0.948,3,0.95C69,1.009,135,1,201,1
			c0,6.667,0,13.333,0,20s0,13.333,0,20c0,7,0,14,0,21c0,6.667,0,13.333,0,20s0,13.333,0,20s0,13.333,0,20c0,7,0,14,0,21
			C134.333,143,67.667,143,1,143z M88,105c0-1.166-0.079-2.339,0.036-3.493c0.052-0.522,0.394-1.102,0.775-1.485
			c0.617-0.619,1.375-1.099,2.073-1.638c-0.78-0.128-1.569-0.405-2.337-0.356c-2.528,0.16-2.213-2.429-3.466-3.492
			c-0.369-0.313-0.491-0.918-0.727-1.389c-0.452,0.479-1.314,0.982-1.288,1.434c0.182,3.032-1.55,3.605-4.025,3.438
			c-0.28-0.02-0.576,0.197-0.864,0.305c0.117,0.236,0.172,0.56,0.361,0.693c2.095,1.479,2.916,3.465,2.461,6.431
			c0-0.149,0-0.298,0-0.446c-0.259,0.093-0.549,0.144-0.758,0.302c-0.062,0.048,0.104,0.396,0.166,0.605
			C80.605,105.754,80.803,105.6,81,105c0.488,0,1.209,0.209,1.426-0.033c1.582-1.768,3.062-0.917,4.574,0.033
			c0.375,0.333,0.718,0.721,1.143,0.968c0.133,0.078,0.486-0.223,0.739-0.35C88.588,105.412,88.294,105.206,88,105z M171.918,63.581
			c-0.156-0.192-0.314-0.387-0.472-0.581c-0.149,0.148-0.298,0.297-0.446,0.446c0.197,0.153,0.385,0.326,0.602,0.443
			c0.037,0.021,0.201-0.192-0.602-0.89c0.066-2.383-0.65-4.998,2.051-6.582c0.358-0.209,0.562-0.68,0.838-1.029
			c-0.44-0.13-0.876-0.348-1.323-0.375c-3.587-0.217-3.589-0.205-4.56-3.744c-0.043-0.153,0.047-0.354-0.017-0.488
			c-0.132-0.274-0.325-0.52-0.493-0.777c-0.233,0.233-0.524,0.432-0.687,0.707c-0.309,0.523-0.647,1.066-0.784,1.646
			c-0.18,0.768,0.09,2.039-0.312,2.271c-0.751,0.436-1.844,0.296-2.797,0.365c-0.492,0.035-0.995-0.045-1.481,0.021
			c-0.45,0.061-0.884,0.244-1.324,0.374c0.275,0.35,0.491,0.921,0.836,1.014c3.005,0.813,3.346,3.021,3.053,5.598
			c-0.294,0.206-0.588,0.412-0.882,0.618c0.252,0.127,0.605,0.428,0.738,0.35c0.426-0.247,0.769-0.635,1.144-0.968
			c1.173-0.452,2.237-1.974,3.58-0.044C169.006,62.569,170.173,62.667,171.918,63.581z M88.918,134.582
			c-0.157-0.193-0.315-0.388-0.473-0.582c-0.148,0.148-0.297,0.297-0.446,0.446c0.197,0.153,0.385,0.326,0.602,0.443
			c0.037,0.021,0.201-0.192-0.602-0.89c-0.128-2.631-0.288-5.278,2.419-6.908c0.463-0.279,0.981-0.469,1.473-0.699
			c-0.605-0.131-1.206-0.327-1.817-0.376c-0.819-0.065-1.656-0.093-2.47,0.001c-1.338,0.153-1.636-0.438-1.662-1.675
			c-0.015-0.693-0.622-1.368-0.938-2.062c-0.189-0.415-0.335-0.851-0.5-1.276c-0.168,0.423-0.348,0.841-0.501,1.269
			c-0.415,1.148-0.502,2.877-1.3,3.313c-1.153,0.629-2.817,0.322-4.263,0.413c-0.165,0.01-0.344-0.041-0.492,0.01
			c-0.287,0.099-0.556,0.248-0.833,0.376c0.168,0.205,0.303,0.543,0.51,0.596c3.257,0.824,3.649,3.23,3.375,6.02
			c-0.294,0.206-0.588,0.412-0.882,0.618c0.253,0.127,0.606,0.428,0.739,0.35c0.425-0.247,0.768-0.635,1.143-0.968
			c1.172-0.452,2.237-1.974,3.58-0.044C86.006,133.569,87.172,133.667,88.918,134.582z M114,134c0.827-0.333,1.994-0.431,2.42-1.044
			c1.343-1.93,2.407-0.408,3.58,0.044c0.375,0.333,0.718,0.721,1.144,0.968c0.133,0.078,0.486-0.223,0.738-0.35
			c-0.294-0.206-0.588-0.412-0.882-0.618c-0.413-2.474,0.284-4.501,2.429-5.913c0.446-0.294,0.969-0.471,1.456-0.702
			c-0.605-0.128-1.207-0.321-1.82-0.369c-0.819-0.063-1.656-0.094-2.47,0.002c-1.356,0.159-1.617-0.466-1.651-1.685
			c-0.02-0.695-0.621-1.37-0.939-2.063c-0.189-0.412-0.34-0.843-0.508-1.266c-0.165,0.426-0.311,0.861-0.501,1.276
			c-0.316,0.694-0.923,1.369-0.938,2.062c-0.026,1.237-0.324,1.828-1.662,1.675c-0.814-0.094-1.651-0.066-2.471-0.001
			c-0.612,0.049-1.212,0.245-1.817,0.376c0.492,0.23,1.07,0.364,1.462,0.71c1.472,1.295,3.052,2.55,2.454,4.925
			c-0.156,0.62-0.023,1.313-0.023,2.419C114,134.297,114,134.148,114,134c-0.259,0.093-0.549,0.144-0.758,0.302
			c-0.062,0.048,0.104,0.396,0.165,0.605C113.605,134.754,113.803,134.6,114,134z M37,62c0.375,0.333,0.718,0.721,1.143,0.968
			c0.133,0.078,0.486-0.223,0.739-0.35C38.588,62.412,38.294,62.206,38,62c-0.293-2.577,0.042-4.807,3.06-5.573
			c0.137-0.034,0.25-0.211,0.349-0.342c0.171-0.224,0.321-0.463,0.48-0.696c-0.276-0.13-0.544-0.28-0.831-0.38
			C40.91,54.958,40.731,55,40.566,55c-1.319,0-2.93,0.453-3.861-0.147c-0.713-0.459-0.457-2.289-0.851-3.434
			c-0.193-0.561-0.885-0.949-1.351-1.415c-0.168,0.422-0.376,0.833-0.498,1.269c-0.989,3.534-0.985,3.524-4.572,3.741
			c-0.447,0.027-0.882,0.245-1.323,0.375c0.275,0.35,0.48,0.82,0.837,1.029c2.702,1.584,1.985,4.199,2.051,7.028
			c0-0.149,0-0.298,0-0.446c-0.259,0.093-0.549,0.144-0.758,0.302c-0.062,0.048,0.104,0.396,0.166,0.605
			C30.605,63.754,30.803,63.6,31,63c0.828-0.333,1.994-0.431,2.42-1.044C34.763,60.026,35.828,61.548,37,62z M88,48
			c-0.443-2.506,0.347-4.498,2.448-5.97c0.196-0.138,0.264-0.457,0.391-0.691c-0.285-0.113-0.567-0.313-0.856-0.323
			c-1.161-0.039-2.557,0.372-3.413-0.141c-0.707-0.423-0.729-1.932-1.14-2.924c-0.268-0.646-0.687-1.23-1.039-1.842
			c-0.351,0.685-0.778,1.342-1.039,2.06c-0.645,1.769-1.417,3.267-3.739,2.854c-0.432-0.076-0.918,0.154-1.379,0.243
			c0.314,0.47,0.573,0.99,0.953,1.399c1.197,1.292,2.879,2.384,1.215,4.501c-0.279,0.354-0.055,1.104-0.063,1.672
			c0.567-0.127,1.392-0.059,1.66-0.411C83.556,46.372,85.217,46.749,87,48c0.375,0.333,0.718,0.721,1.143,0.968
			c0.133,0.078,0.486-0.223,0.739-0.35C88.588,48.412,88.294,48.206,88,48z M114,48c-0.294,0.206-0.588,0.412-0.882,0.618
			c0.252,0.127,0.605,0.428,0.738,0.35c0.426-0.247,0.769-0.635,1.144-0.968c1.783-1.251,3.48-1.655,4.971,0.451
			c0.171,0.241,0.483,0.46,0.767,0.523c0.284,0.062,0.686,0.009,0.903-0.162c0.209-0.164,0.401-0.592,0.332-0.821
			c-0.266-0.879-0.886-1.715-0.922-2.586c-0.08-1.924,2.829-2.671,2.621-3.746c-0.337-1.745-3.42,0.461-4.324-1.786
			c-0.344-0.854-0.922-1.608-1.335-2.438c-0.203-0.408-0.273-0.882-0.403-1.326c-0.234,0.494-0.435,1.009-0.715,1.476
			c-0.166,0.276-0.558,0.436-0.676,0.719c-1.093,2.61-1.082,2.616-3.205,2.694c-0.331,0.013-0.672-0.042-0.994,0.015
			c-0.296,0.053-0.572,0.213-0.858,0.326c0.128,0.234,0.195,0.554,0.392,0.691C113.653,43.502,114.442,45.494,114,48z M31,34
			c-0.294,0.206-0.588,0.412-0.882,0.618c0.253,0.127,0.606,0.428,0.739,0.35C31.282,34.721,31.625,34.333,32,34
			c1.717-1.303,3.422-1.317,5.157-0.01c0.456,0.344,1,0.568,1.504,0.849c0.11-0.782,0.375-1.585,0.279-2.341
			c-0.071-0.561-0.976-1.167-0.86-1.565c0.205-0.71,0.908-1.272,1.39-1.906c0.441-0.58,0.865-1.173,1.297-1.76
			c-0.627-0.089-1.256-0.265-1.881-0.25c-1.748,0.04-2.721-0.725-2.895-2.493c-0.045-0.459-0.123-0.958-0.349-1.343
			c-0.244-0.416-0.68-0.719-1.032-1.071c-0.203,0.341-0.399,0.688-0.611,1.022c-1.116,1.77-1.402,4.495-4.576,3.896
			c-0.403-0.076-0.88,0.238-1.323,0.372c0.403,0.47,0.749,1.265,1.221,1.348c1.391,0.247,1.875,0.885,1.703,2.266
			C30.902,31.995,31,33.004,31,34z M170,34c0.375,0.333,0.718,0.721,1.144,0.968c0.133,0.078,0.486-0.223,0.738-0.35
			c-0.294-0.206-0.588-0.412-0.882-0.618c0.123-2.239-0.863-4.921,2.389-5.917c0.22-0.067,0.344-0.447,0.512-0.683
			c-0.276-0.134-0.584-0.424-0.825-0.376c-2.584,0.509-3.851-0.875-4.647-3.073c-0.237-0.653-0.686-1.23-1.037-1.842
			c-0.464,0.638-1.305,1.266-1.323,1.917c-0.066,2.387-1.312,3.108-3.451,2.99c-0.455-0.025-0.922,0.161-1.383,0.25
			c0.314,0.47,0.604,0.959,0.947,1.405c0.883,1.148,3.064,1.924,0.889,3.888c-0.328,0.296,0.159,1.497,0.27,2.279
			c0.504-0.28,1.049-0.505,1.504-0.849C166.577,32.683,168.283,32.697,170,34z M183.805,64.795c-0.266,0.44-0.672,0.856-0.781,1.34
			c-0.563,2.479-2.159,3.241-4.51,2.868c-0.162-0.025-0.342-0.04-0.495,0.005c-0.293,0.086-0.573,0.219-0.858,0.332
			c0.128,0.234,0.197,0.555,0.394,0.691c2.104,1.472,2.885,3.467,2.45,5.973c-0.028,0.161-0.069,0.428,0.008,0.48
			c0.304,0.208,0.736,0.563,0.969,0.474c0.569-0.222,1.152-0.573,1.553-1.029c0.931-1.058,1.783-1.395,2.787-0.122
			c0.306,0.389,0.642,0.841,1.066,1.023c0.368,0.159,0.914,0.063,1.318-0.088c0.179-0.066,0.306-0.561,0.273-0.84
			c-0.071-0.614-0.096-1.331-0.429-1.8c-0.932-1.312-1.005-1.958,0.901-2.182c0.649-0.077,1.223-1.049,1.768-1.667
			c0.244-0.277,0.332-0.692,0.49-1.045c-0.303-0.069-0.608-0.209-0.909-0.198c-2.561,0.097-5.168,0.3-4.873-3.552
			c0.011-0.133-0.501-0.306-4.927,11.987c0-0.149,0-0.298,0-0.446c-0.259,0.093-0.549,0.144-0.758,0.302
			c-0.062,0.048,0.104,0.396,0.165,0.605C179.605,77.754,179.803,77.6,183.805,64.795z M150.573,8.073
			c-0.191,0.204-0.534,0.397-0.551,0.614c-0.249,3.34-2.472,3.575-5.078,3.354c-0.29-0.024-0.85,0.495-0.886,0.809
			c-0.042,0.356,0.314,1.059,0.583,1.104c2.107,0.352,2.42,1.74,2.385,3.552c-0.039,2.009,0.032,1.84,2.562,1.572
			c1.146-0.121,2.391,0.552,3.565,0.939c0.537,0.178,1.014,0.536,1.518,0.812c0.109-0.62,0.534-1.48,0.275-1.82
			c-1.431-1.878-0.745-3.154,0.886-4.369c0.66-0.491,1.224-1.132,1.746-1.773c0.099-0.122-0.178-0.811-0.322-0.825
			c-0.823-0.082-1.667-0.113-2.49-0.025c-1.914,0.203-3.138-0.177-2.854-2.537c0.049-0.408-0.868-0.933-4.913,10.969
			c0-0.149,0-0.298,0-0.446c-0.259,0.093-0.549,0.144-0.758,0.302c-0.062,0.048,0.104,0.396,0.165,0.605
			C146.605,20.754,146.803,20.6,150.573,8.073z M121.918,105.582c-0.156-0.193-0.314-0.388-0.472-0.582
			c-0.149,0.148-0.298,0.297-0.446,0.446c0.197,0.153,0.385,0.326,0.602,0.443c0.037,0.021,0.201-0.192-1.32-0.441
			c0.353-0.705,0.733-1.101,0.686-1.434c-0.259-1.789,0.289-3.169,1.744-4.256c0.506-0.377,0.992-0.895,1.237-1.456
			c0.134-0.305-0.208-1.179-0.424-1.211c-0.965-0.146-1.971-0.173-2.943-0.069c-1.382,0.146-1.723-0.502-1.592-1.707
			c0.033-0.306,0.035-0.71-0.133-0.921c-0.401-0.504-0.912-0.921-1.379-1.372c-0.159,0.429-0.275,0.88-0.485,1.282
			c-0.863,1.663-1.647,3.39-4.13,2.739c-0.629-0.165-1.828-0.461-1.811,0.849c0.008,0.53,0.495,1.394,0.936,1.521
			c2.613,0.766,2.318,2.514,1.654,4.421c-0.098,0.281-0.599,0.48-0.604,0.724c-0.008,0.439,0.089,1.056,0.383,1.274
			c0.271,0.201,1.086,0.152,1.27-0.087C116.248,103.719,117.954,103.247,121.918,105.582z M55.918,20.582
			c-0.157-0.193-0.315-0.388-0.473-0.582c-0.148,0.148-0.297,0.297-0.446,0.446c0.197,0.153,0.385,0.326,0.602,0.443
			c0.037,0.021,0.201-0.192-1.198-0.688c0.205-0.409,0.533-0.787,0.573-1.194c0.18-1.837-0.683-4.005,1.823-5.032
			c0.466-0.191,1.13-0.688,1.141-1.06c0.04-1.32-1.151-1.043-1.78-0.872c-2.488,0.675-3.243-1.116-4.151-2.72
			c-0.223-0.393-0.204-1.058-0.506-1.23c-0.299-0.171-1.027-0.021-1.266,0.252c-0.26,0.297-0.3,0.922-0.216,1.362
			c0.405,2.14-0.715,2.507-2.483,2.308c-0.814-0.092-1.649-0.041-2.473-0.002c-0.293,0.015-0.578,0.187-0.866,0.287
			c0.101,0.233,0.146,0.52,0.311,0.691c0.914,0.952,1.911,1.83,2.767,2.83c0.377,0.44,0.802,1.508,0.674,1.607
			c-1.093,0.85-1.019,1.954-0.92,3.102c1.031-0.386,2.162-0.613,3.071-1.19C51.692,18.332,52.764,19.485,55.918,20.582z
			 M67.94,78.913c-0.277,0.228-0.874,0.478-0.899,0.776c-0.251,2.933-2.034,3.638-4.595,3.313c-0.164-0.021-0.381-0.069-0.49,0.01
			c-0.34,0.247-0.861,0.523-0.898,0.837c-0.042,0.356,0.301,1.041,0.585,1.104c1.677,0.379,2.404,1.267,2.395,3.051
			c-0.013,2.416,0.098,2.382,3.044,2.01c1.51-0.191,2.956-0.036,3.899,1.441c0.123,0.192,0.456,0.251,0.69,0.372
			c0.11-0.287,0.292-0.569,0.313-0.863c0.048-0.662,0.276-1.509-0.035-1.962c-0.878-1.28-0.774-2.148,0.526-3.019
			c0.678-0.454,1.192-1.153,1.781-1.741c0.235-0.235,0.471-0.471,0.706-0.706c-0.4-0.179-0.809-0.529-1.199-0.51
			c-2.631,0.132-5.107,0.147-4.873-3.604c0.008-0.125-0.512-0.283-4.891,12.022c0-0.149,0-0.298,0-0.446
			c-0.259,0.093-0.549,0.144-0.758,0.302c-0.062,0.048,0.104,0.396,0.166,0.605C63.605,91.754,63.803,91.6,67.94,78.913z M54,105
			c0.375,0.333,0.718,0.721,1.143,0.968c0.133,0.078,0.486-0.223,0.739-0.35c-0.294-0.206-0.588-0.412-0.882-0.618
			c0-3.05,0.014-3.038,2.688-6.23c0.253-0.302,0.265-0.885,0.218-1.318c-0.019-0.176-0.488-0.411-0.765-0.431
			c-0.821-0.058-1.658-0.097-2.472-0.003c-1.25,0.146-1.722-0.331-1.784-1.583c-0.027-0.546-0.701-1.03-0.857-1.604
			c-0.31-1.137-0.721-0.72-1.184-0.167c-0.302,0.36-0.856,0.811-0.796,1.125c0.442,2.342-1.002,2.312-2.593,2.22
			c-0.822-0.049-1.661-0.088-2.469,0.027c-0.357,0.051-0.881,0.463-0.927,0.771c-0.054,0.364,0.225,0.923,0.539,1.167
			c0.726,0.564,1.62,0.916,2.335,1.491c0.92,0.74,1.824,1.586,0.393,2.741c-0.203,0.164-0.284,0.552-0.31,0.846
			c-0.044,0.487,0.002,0.981,0.011,1.474c0.467-0.15,0.939-0.285,1.399-0.453C50.276,104.397,52.115,103.069,54,105z M147,105
			c-0.294,0.206-0.588,0.412-0.882,0.618c0.252,0.127,0.605,0.428,0.738,0.35c0.426-0.247,0.769-0.635,1.144-0.968
			c0.852-0.333,1.749-1.02,2.545-0.917c1.165,0.151,2.261,0.859,3.378,1.348c0.25,0.11,0.469,0.294,0.702,0.444
			c0.125-0.443,0.283-0.881,0.364-1.331c0.057-0.32,0.149-0.836-0.011-0.961c-1.819-1.428-0.8-2.497,0.438-3.469
			c0.595-0.467,1.387-0.681,1.985-1.143c0.314-0.242,0.594-0.801,0.54-1.165c-0.046-0.308-0.575-0.732-0.926-0.77
			c-0.979-0.105-1.979-0.085-2.965-0.025c-1.266,0.077-2.35,0.048-2.065-1.721c0.048-0.296,0.024-0.704-0.146-0.913
			c-0.401-0.493-0.912-0.898-1.379-1.339c-0.153,0.432-0.247,0.897-0.472,1.288c-0.915,1.593-1.674,3.434-4.147,2.695
			c-0.434-0.129-1.07-0.117-1.404,0.121c-0.297,0.213-0.489,0.882-0.388,1.257c0.112,0.417,0.56,0.968,0.948,1.05
			c2.091,0.44,2.227,1.865,2.015,3.571C146.933,103.672,147,104.34,147,105z M130,90.042c0.285,0.614-0.996,2.964,1.501,1.097
			c1.773-1.327,4.104-2.095,5.805,0.602c0.146,0.23,0.861,0.103,1.312,0.142c0.02-0.568,0.2-1.191,0.031-1.696
			c-1.037-3.104-1.052-3.078,1.75-5.207c0.317-0.241,0.598-0.813,0.542-1.178c-0.048-0.308-0.577-0.693-0.948-0.766
			c-0.642-0.126-1.339-0.123-1.988-0.018c-1.405,0.229-2.039-0.348-2.238-1.717c-0.085-0.582-0.425-1.176-0.793-1.651
			c-0.247-0.319-0.772-0.635-1.13-0.591c-0.313,0.038-0.823,0.597-0.802,0.894c0.13,1.779-0.68,2.776-2.374,3.03
			c-1.12,0.168-2.266,0.172-3.399,0.249c0.763,0.941,1.341,2.225,2.325,2.758C131.955,87.269,129.348,88.77,130,90.042z
			 M38.627,92.127c0.154-0.704,0.414-1.226,0.349-1.702c-0.459-3.378-0.48-3.375,1.611-5.512c0.233-0.237,0.471-0.471,0.706-0.707
			c0.235-0.235,0.471-0.471,0.707-0.706c-0.431-0.167-0.855-0.456-1.293-0.477c-1.329-0.063-2.973,0.453-3.909-0.156
			c-0.959-0.623-1.237-2.305-1.792-3.533c-0.19-0.419-0.317-0.867-0.474-1.302c-0.177,0.404-0.376,0.802-0.527,1.216
			c-0.423,1.158-0.524,2.662-1.331,3.38c-0.674,0.6-2.179,0.204-3.286,0.408c-0.5,0.092-1.339,0.629-1.306,0.862
			c0.08,0.564,0.496,1.436,0.928,1.537c2.48,0.583,2.165,2.375,1.899,4.112c-0.062,0.407-0.766,0.705-0.858,1.124
			c-0.084,0.382,0.181,0.92,0.45,1.268c0.128,0.166,0.828,0.183,0.92,0.041c1.996-3.069,4.266-1.992,6.573-0.48
			C38.13,91.59,38.232,91.731,38.627,92.127z M171.475,92c0.13-0.319,0.638-1.055,0.479-1.252c-2.294-2.84-0.774-4.496,1.706-5.924
			c0.278-0.16,0.487-0.45,0.709-0.698c0.198-0.222,0.371-0.467,0.556-0.702c-0.274-0.142-0.544-0.394-0.823-0.404
			c-1.161-0.046-2.327-0.035-3.49-0.015c-0.855,0.017-1.567,0.059-1.661-1.178c-0.054-0.714-0.674-1.369-0.937-2.088
			c-0.453-1.243-0.921-0.416-1.229,0.015c-0.351,0.491-0.774,1.121-0.736,1.661c0.098,1.406-0.553,1.605-1.751,1.619
			c-1.431,0.018-2.857,0.292-4.286,0.455c0.934,0.94,1.819,1.936,2.812,2.808c1.146,1.005,1.809,1.908,0.283,3.168
			c-0.254,0.21-0.124,0.94-0.096,1.426c0.035,0.596-0.038,1.372,0.977,0.64c2.281-1.646,4.554-2.616,6.53,0.46
			C170.565,92.066,170.835,92,171.475,92z M91.945,12.555c-0.22-0.185-0.431-0.516-0.66-0.529c-0.996-0.059-2-0.073-2.995-0.014
			c-1.462,0.086-2.713,0.167-2.374-2.025c0.085-0.551-0.858-1.262-1.33-1.899c-0.529,0.556-1.567,1.182-1.501,1.654
			c0.323,2.315-0.975,2.396-2.629,2.27c-0.828-0.062-1.667-0.043-2.496,0.007c-0.287,0.017-0.562,0.237-0.842,0.364
			c0.157,0.235,0.286,0.497,0.476,0.701c0.454,0.487,0.854,1.163,1.422,1.38c2.08,0.793,2.868,1.845,1.244,3.824
			c-0.261,0.317-0.215,0.911-0.248,1.382c-0.022,0.312,0.067,0.632,0.106,0.949c0.353-0.099,0.717-0.17,1.058-0.301
			c1.97-0.753,3.936-2.639,5.872,0.152c0.23,0.332,1.091,0.226,1.66,0.322c-0.041-0.568,0.009-1.162-0.137-1.702
			c-0.831-3.074-1.281-2.184,1.603-4.772C90.792,13.762,91.355,13.145,91.945,12.555z M124.945,12.555
			c-0.22-0.185-0.431-0.516-0.66-0.529c-0.996-0.059-2-0.073-2.995-0.014c-1.462,0.086-2.713,0.167-2.373-2.025
			c0.085-0.551-0.859-1.262-1.33-1.899c-0.529,0.556-1.566,1.182-1.501,1.654c0.323,2.315-0.975,2.396-2.63,2.27
			c-0.827-0.062-1.666-0.043-2.496,0.007c-0.286,0.017-0.562,0.237-0.842,0.364c0.157,0.235,0.284,0.499,0.476,0.701
			c0.573,0.604,1.13,1.629,1.769,1.689c2.076,0.196,1.711,1.618,1.59,2.807c-0.073,0.721-0.724,1.367-0.908,2.1
			c-0.094,0.371,0.191,0.92,0.462,1.266c0.129,0.166,0.829,0.18,0.923,0.036c1.996-3.079,4.289-2.046,6.561-0.461
			c0.989,0.689,1.026,0.048,0.988-0.604c-0.034-0.615-0.089-1.334-0.42-1.809c-1.277-1.826-0.661-2.729,1.242-3.493
			C123.652,14.271,124.237,13.263,124.945,12.555z M187.648,105.687c0.037-0.071,0.332-0.38,0.323-0.679
			c-0.019-0.619,0.008-1.427-0.353-1.81c-0.898-0.954-0.842-1.682,0.125-2.438c0.86-0.673,1.324-1.931,2.755-1.818
			c0.134,0.011,0.52-0.832,0.442-1.208c-0.062-0.301-0.643-0.688-1.005-0.702c-2.401-0.092-5.274,0.609-4.988-3.433
			c0.012-0.172-0.762-0.589-1.122-0.54c-0.311,0.042-0.794,0.591-0.788,0.907c0.048,2.348-1.161,3.132-3.353,3.07
			c-0.889-0.024-2.337,0.093-2.582,0.603c-0.706,1.466,0.986,1.146,1.648,1.626c0.266,0.191,0.62,0.427,0.685,0.701
			c0.394,1.668,0.183,4.046,1.212,4.838s3.235-2.028,5.022,0.167C185.996,105.371,186.786,105.393,187.648,105.687z M17.76,92.757
			c-0.312,0.487-0.737,0.844-0.728,1.188c0.064,2.338-1.116,3.221-3.325,3.062c-0.659-0.047-1.331-0.06-1.985,0.02
			c-0.259,0.03-0.685,0.355-0.682,0.54c0.007,0.445,0.085,1.058,0.382,1.295c0.717,0.572,1.622,0.904,2.364,1.45
			c1.193,0.878,1.909,1.872,0.331,3.115c-0.175,0.137-0.132,0.615-0.106,0.928c0.039,0.467,0.152,0.928,0.234,1.391
			c0.352-0.182,0.688-0.475,1.057-0.525c1.688-0.234,3.167-2.571,5.152-0.375c0.515,0.569,1.617,0.226,1.535-0.976
			c-0.162-2.359-0.196-4.609,2.844-5.201c-0.125-0.557-0.195-1.137-0.418-1.65c-0.053-0.121-0.623-0.031-0.953-0.016
			c-2.434,0.121-4.749,0.121-4.51-3.382C18.967,93.396,18.285,93.124,17.76,92.757z M108.061,83.674
			c-0.291-0.2-0.646-0.657-0.976-0.64c-2.782,0.154-5.359,0.119-5.327-3.74c0.001-0.096-0.622-0.354-0.825-0.26
			c-0.363,0.169-0.9,0.56-0.89,0.84c0.09,2.344-1.027,3.241-3.294,3.161c-0.909-0.032-2.427,0.063-2.643,0.553
			c-0.804,1.825,1.517,1.066,1.997,1.993c0.217,0.419,0.786,0.72,0.862,1.136C97.223,88.13,97.333,89.57,97.5,91
			c1.361-0.333,2.709-0.769,4.09-0.947c0.519-0.068,1.115,0.457,1.675,0.712c1.277,0.583,1.83,0.145,1.736-1.224
			c-0.15-2.197-0.133-4.294,2.728-4.812C107.867,84.705,107.913,84.172,108.061,83.674z M180.933,20.232
			c2.123-2.043,4.172-1.294,6.258-0.279c0.099,0.048,0.753-0.579,0.773-0.915c0.119-1.93-0.367-3.927,1.73-5.337
			c0.884-0.594,0.275-1.644-1.112-1.672c-1.979-0.039-3.645-0.218-3.633-2.822c0.002-0.401-0.672-0.805-1.033-1.207
			c-0.306,0.459-0.514,1.057-0.935,1.35c-1.152,0.8-0.716,3.408-3.25,2.713c-0.807-0.221-2.41,0.037-2.625,0.526
			c-0.803,1.824,1.556,1.047,1.98,2.001c0.313,0.703,0.738,1.389,0.878,2.127c0.153,0.804-0.046,1.671,0.074,2.486
			C180.09,19.547,180.564,19.828,180.933,20.232z M141.213,27.006c-0.367-0.391-0.645-0.951-0.948-0.966
			c-2.522-0.121-5.628,0.724-5.311-3.586c-0.352,0.049-0.784-0.012-1.036,0.173c-0.373,0.272-0.923,0.772-0.869,1.084
			c0.379,2.193-0.798,2.483-2.537,2.304c-0.819-0.085-1.666-0.091-2.479,0.02c-0.37,0.051-0.919,0.429-0.974,0.732
			c-0.066,0.37,0.191,0.961,0.504,1.205c0.727,0.566,1.636,0.902,2.352,1.479c0.914,0.735,1.853,1.578,0.416,2.751
			c-0.204,0.166-0.289,0.553-0.315,0.848c-0.044,0.488,0.004,0.985,0.013,1.479c0.469-0.153,0.931-0.411,1.407-0.442
			c1.699-0.11,3.262-2.324,5.184-0.151c0.51,0.577,1.359-0.149,1.411-1.253c0.119-2.562,0.188-2.551,2.227-4.451
			C140.59,27.918,140.828,27.504,141.213,27.006z M71.781,34.875c0.064-0.611,0.489-1.678,0.16-2.022
			c-1.648-1.724-0.345-2.625,0.559-4.014c0.699-1.073,3.32-0.182,2.373-2.275c-0.248-0.549-2.048-0.418-3.141-0.553
			c-0.49-0.062-0.996-0.043-1.49-0.004c-1.188,0.093-1.288-0.615-1.266-1.544c0.011-0.442-0.141-0.941-0.373-1.322
			c-0.251-0.413-0.68-0.717-1.032-1.068c-0.191,0.37-0.552,0.743-0.544,1.109c0.046,2.14-1.104,2.894-3.06,2.82
			c-0.331-0.013-0.67-0.046-0.993,0.007c-0.713,0.116-1.839-0.482-1.92,0.799c-0.033,0.516,0.437,1.388,0.879,1.551
			c1.759,0.649,2.405,1.749,2.097,3.582C63.932,32.528,64.2,33.179,64.3,33.8c0.683-0.217,1.357-0.473,2.052-0.641
			c1.127-0.272,2.158-0.368,3.089,0.698C69.891,34.373,70.811,34.477,71.781,34.875z M18.189,7.74
			c-0.507,0.396-1.149,0.673-1.139,0.924c0.052,1.226-0.064,2.462-1.25,2.961c-1.133,0.477-3.054,0.105-3.56,0.842
			c-1.131,1.645,1.799,1.978,1.762,3.535c-0.017,0.666-0.027,1.333,0.001,1.998c0.088,2.062,0.07,1.954,2.064,1.481
			c1.182-0.28,2.716-0.623,3.64-0.115c1.675,0.92,2.374,1.037,2.29-1.116c-0.079-2.012-0.248-4.047,2.583-4.393
			c0.188-0.023,0.366-0.829,0.378-1.275c0.005-0.188-0.405-0.472-0.676-0.56c-0.301-0.098-0.673-0.085-0.99-0.013
			c-2.61,0.593-3.654-0.943-4.311-3.087C18.867,8.542,18.527,8.23,18.189,7.74z M157.872,69.354
			c-0.31-0.125-0.591-0.329-0.879-0.339c-1.16-0.038-2.325-0.062-3.484-0.001c-0.969,0.052-1.576-0.125-1.527-1.29
			c0.034-0.8,0.051-1.667-0.223-2.392c-0.192-0.51-0.885-0.832-1.354-1.237c-0.135,0.442-0.28,0.882-0.402,1.327
			c-0.936,3.411-0.975,3.415-3.277,3.596c-0.917,0.072-2.409,0.098-2.619,0.585c-0.781,1.812,1.558,1.037,1.984,1.989
			c0.313,0.699,0.735,1.384,0.876,2.119c0.152,0.801-0.123,1.699,0.101,2.464c0.111,0.38,1.238,0.893,1.365,0.773
			c1.578-1.49,3.145-1.189,4.818-0.233c0.364,0.208,0.888,0.139,1.337,0.197c0.042-0.567,0.319-1.273,0.083-1.678
			c-0.928-1.582-1.728-2.898,1.005-3.489c0.682-0.147,1.198-1.098,1.769-1.701C157.624,69.854,157.729,69.59,157.872,69.354z
			 M117.032,74.532c0.878,0.878,1.078,1.174,1.355,1.337c0.665,0.391,1.365,0.72,2.053,1.07c0.47,0.239,0.941,0.472,1.413,0.707
			c0.049-0.646,0.369-1.462,0.092-1.902c-0.623-0.988-1.442-2.064-0.861-3.069c0.483-0.837,1.709-1.238,2.587-1.858
			c0.269-0.189,0.489-0.453,0.708-0.702c0.193-0.221,0.355-0.468,0.531-0.704c-0.276-0.137-0.55-0.385-0.829-0.392
			c-1.498-0.039-3.399,0.539-4.385-0.172c-1.026-0.741-1.154-2.712-1.709-4.131c-0.098-0.252-0.359-0.44-0.545-0.658
			c-0.147,0.272-0.335,0.53-0.436,0.818c-0.456,1.311-0.515,3.194-1.427,3.798c-1.053,0.697-2.851,0.268-4.325,0.325
			c-0.166,0.007-0.361-0.055-0.493,0.013c-0.264,0.136-0.492,0.339-0.736,0.514c0.236,0.236,0.441,0.517,0.713,0.699
			c0.907,0.609,2.214,0.983,2.665,1.824c0.562,1.051,0.432,2.475,0.594,3.738c0.021,0.164-0.055,0.447,0.012,0.481
			c0.502,0.253,1.37,0.76,1.488,0.626C116.113,76.198,116.541,75.335,117.032,74.532z M48.326,73.435
			c-0.42,0.721-0.85,1.214-0.994,1.779c-0.134,0.523,0.037,1.125,0.074,1.691c0.45-0.053,1.031,0.055,1.327-0.188
			c1.489-1.219,2.92-1.108,4.426-0.069c1.146,0.791,1.8,0.485,1.84-0.941c0.057-2.044-0.613-4.458,2.597-4.864
			c0.185-0.023,0.356-0.83,0.363-1.275c0.003-0.186-0.428-0.52-0.683-0.541c-0.824-0.07-1.692-0.176-2.481,0.005
			c-1.688,0.386-1.725-0.96-2.125-1.885c-0.304-0.703-0.44-1.477-0.677-2.21c-0.094-0.29-0.258-0.557-0.391-0.834
			c-0.353,0.284-0.824,0.501-1.028,0.867c-0.293,0.526-0.626,1.201-0.534,1.742c0.376,2.206-0.801,2.479-2.537,2.303
			c-0.821-0.084-1.66-0.043-2.487,0.001c-0.291,0.016-0.571,0.211-0.856,0.323c0.127,0.235,0.199,0.541,0.393,0.692
			c0.87,0.681,1.806,1.279,2.652,1.984C47.622,72.363,47.897,72.879,48.326,73.435z M87.44,77c0.15-0.27,0.562-0.657,0.527-1
			c-0.268-2.637,0.141-4.821,3.142-5.655c0.309-0.085,0.478-0.67,0.712-1.023c-0.289-0.107-0.575-0.299-0.867-0.307
			c-1.494-0.041-3.283,0.462-4.393-0.196c-0.931-0.552-1.077-2.437-1.554-3.737c-0.054-0.146,0.02-0.47-0.011-0.476
			c-0.327-0.062-0.904-0.195-0.958-0.086c-0.404,0.826-0.985,1.706-0.977,2.563c0.016,1.485-0.387,2.146-1.938,1.932
			C80.471,68.925,79.794,69,79.128,69c-0.333,0-0.692-0.079-0.992,0.021c-0.366,0.12-0.683,0.39-1.021,0.595
			c0.235,0.235,0.429,0.573,0.713,0.69c2.759,1.135,4.375,2.665,2.192,5.708c-0.158,0.22-0.066,0.659-0.007,0.981
			c0.054,0.296,0.221,0.571,0.338,0.856c0.236-0.137,0.518-0.228,0.7-0.416c1.764-1.833,3.559-3.03,5.673-0.446
			C86.791,77.071,87.045,77,87.44,77z M17.783,64.442c-0.372,0.862-0.758,1.343-0.752,1.818c0.024,2.184-1.223,2.802-3.123,2.742
			c-0.66-0.021-1.324-0.042-1.979,0.016c-0.285,0.024-0.552,0.247-0.827,0.38c0.166,0.233,0.298,0.505,0.504,0.694
			c0.712,0.651,1.361,1.609,2.198,1.832c1.409,0.374,1.532,0.88,0.816,1.968c-0.25,0.38-0.576,0.814-0.582,1.228
			c-0.007,0.6,0.245,1.203,0.387,1.805c0.564-0.181,1.351-0.188,1.655-0.573c1.368-1.735,2.582-1.679,3.836,0.06
			c0.095,0.133,0.21,0.279,0.351,0.346c0.814,0.384,1.778,0.512,1.686-0.688c-0.188-2.451,0.228-4.526,2.422-5.962
			c0.232-0.151,0.364-0.456,0.542-0.689c-0.438-0.139-0.898-0.445-1.31-0.39c-2.564,0.344-4.188-0.535-4.638-3.23
			C18.912,65.451,18.443,65.174,17.783,64.442z M140.899,55.6c-0.175-0.199-0.339-0.558-0.529-0.572
			c-0.827-0.063-1.69-0.161-2.489,0.001c-1.583,0.321-1.842-0.749-2.176-1.821c-0.229-0.737-0.463-1.473-0.708-2.204
			c-0.098-0.292-0.231-0.57-0.349-0.854c-0.354,0.254-0.777,0.452-1.041,0.778c-0.281,0.35-0.45,0.808-0.602,1.242
			c-0.937,2.689-0.93,2.696-3.547,2.827c-0.498,0.025-1.004-0.04-1.496,0.021c-0.292,0.036-0.562,0.237-0.844,0.364
			c0.156,0.235,0.26,0.558,0.478,0.689c0.659,0.398,1.467,0.605,2.026,1.103c0.924,0.821,2.367,1.647,0.64,3.124
			c-0.276,0.236-0.275,0.91-0.236,1.367c0.037,0.444,0.172,1.078,0.477,1.248c0.302,0.168,1.095,0.018,1.284-0.259
			c1.671-2.441,3.031-1.606,4.623,0.151c0.525,0.58,1.749,0.316,1.553-0.884c-0.425-2.593,0.561-4.464,2.565-5.954
			C140.661,55.869,140.766,55.734,140.899,55.6z M67.643,50.113c-0.223,0.164-0.618,0.32-0.616,0.472
			C67.07,54,65.557,55.605,62.04,55.02c-0.263-0.044-0.574,0.195-0.862,0.303c0.117,0.235,0.171,0.56,0.36,0.692
			c2.093,1.48,2.817,3.452,2.505,5.989c-0.153,1.245,0.856,1.161,1.649,0.767c0.424-0.212,0.749-0.657,1.066-1.04
			c0.798-0.962,1.565-1.06,2.428-0.062c0.425,0.491,0.897,1.089,1.462,1.258c0.336,0.101,1.16-0.455,1.286-0.863
			c0.167-0.544,0.096-1.484-0.269-1.812c-1.382-1.238-0.521-2.04,0.413-2.787c0.461-0.369,1.192-0.397,1.667-0.757
			c0.45-0.342,0.725-0.914,1.077-1.386c-0.455-0.107-0.915-0.321-1.365-0.304c-2.465,0.1-4.733,0.075-4.521-3.438
			C68.962,51.125,68.107,50.616,67.643,50.113z M141.226,112.274c-0.796-0.11-1.383-0.234-1.974-0.268
			c-3.329-0.185-3.329-0.178-4.253-3.569c-0.121-0.444-0.258-0.884-0.388-1.326c-0.467,0.393-1.337,0.784-1.339,1.179
			c-0.018,3.805-2.508,3.914-5.282,3.729c-0.272-0.019-0.562,0.217-0.844,0.335c0.253,0.351,0.438,0.793,0.771,1.033
			c0.877,0.635,1.893,1.092,2.717,1.782c1.709,1.43-1.538,2.016-0.65,3.396c0.238,0.371,0.275,1.253,0.398,1.252
			c0.566-0.006,1.292-0.071,1.664-0.426c1.113-1.059,1.771-1.891,3.568-0.498c2.05,1.589,2.324,1.236,2.385-1.259
			c0.008-0.33,0.023-0.662-0.003-0.99c-0.121-1.512-0.086-2.868,1.929-3.118C140.312,113.479,140.631,112.869,141.226,112.274z
			 M58.099,126c-0.864,0-1.482,0.019-2.1-0.003c-2.753-0.098-3.159-0.383-3.985-2.876c-0.1-0.301,0.065-0.688-0.034-0.988
			c-0.121-0.364-0.391-0.68-0.597-1.016c-0.236,0.235-0.546,0.433-0.691,0.715c-0.28,0.544-0.591,1.12-0.669,1.712
			c-0.231,1.767-1.203,2.529-2.939,2.462c-0.832-0.033-1.666-0.019-2.498,0.007c-0.129,0.004-0.37,0.201-0.357,0.276
			c0.04,0.244,0.107,0.559,0.282,0.693c0.492,0.38,1.044,0.682,1.571,1.018c2.233,1.427,2.204,1.418,1.269,4.186
			c-0.17,0.504,0.012,1.128,0.031,1.696c0.569-0.156,1.399-0.129,1.661-0.501c1.254-1.783,2.598-1.292,4.043-0.385
			c0.26,0.163,0.607,0.221,0.815,0.427c0.671,0.665,1.19,0.584,1.067-0.379c-0.319-2.506,0.319-4.533,2.465-5.998
			C57.639,126.905,57.729,126.596,58.099,126z M154.554,134.308c0.174-0.766,0.56-1.63,0.372-1.781
			c-0.91-0.731-1.171-1.676-0.886-2.639c0.331-1.116,1.058-1.984,2.462-1.922c0.225,0.01,0.469-0.437,0.704-0.672
			c0.236-0.236,0.472-0.472,0.707-0.707c-0.36-0.195-0.753-0.604-1.076-0.554c-3.103,0.472-4.974-0.611-5.232-3.914
			c-0.01-0.126-0.222-0.236-0.34-0.354c-0.235-0.235-0.471-0.471-0.706-0.706c-0.187,0.217-0.54,0.438-0.533,0.65
			c0.104,3.6-1.772,4.79-5.109,4.313c-0.252-0.036-0.55,0.251-0.826,0.388c0.176,0.235,0.308,0.529,0.533,0.697
			c1.864,1.384,2.706,3.104,2.427,5.521c-0.244,2.108,0.617,0.734,1.477,0.453c1.427-0.467,3.188-2.238,4.478,0.372
			C153.169,133.788,153.783,133.9,154.554,134.308z M71.235,120.076c0.227-0.265,0.625-0.54,0.732-0.901
			c0.135-0.455,0.246-1.174-0.001-1.445c-1.869-2.058-0.803-3.018,1.243-3.749c0.425-0.151,0.779-0.529,1.135-0.837
			c0.229-0.199,0.405-0.461,0.604-0.694c-0.269-0.15-0.527-0.405-0.807-0.431c-1.287-0.117-2.633,0.035-3.856-0.292
			c-1.851-0.495-0.816-2.611-1.753-3.69c-0.108-0.124-0.23-0.236-0.349-0.351c-0.232-0.225-0.467-0.446-0.701-0.67
			c-0.161,0.264-0.385,0.508-0.473,0.794c-0.359,1.176-0.453,2.499-1.066,3.513c-0.803,1.327-2.363,0.411-3.555,0.684
			c-0.446,0.103-0.875,0.276-1.312,0.418c0.299,0.35,0.545,0.929,0.907,1.013c2.024,0.471,2.296,1.83,2.028,3.569
			c-0.075,0.484,0.008,0.99-0.015,1.484c-0.065,1.411,0.06,1.634,1.445,0.7c1.455-0.979,3.406-2.05,4.76,0.476
			C70.31,119.868,70.75,119.894,71.235,120.076z M108.153,112.347c-0.732-0.143-1.253-0.307-1.781-0.337
			c-3.421-0.192-3.429-0.181-4.36-3.513c-0.086-0.31,0.091-0.714-0.042-0.981c-0.119-0.238-0.523-0.516-0.755-0.479
			c-0.423,0.066-1.162,0.353-1.162,0.547c0.001,3.406-1.488,5.026-5.01,4.437c-0.264-0.044-0.574,0.194-0.863,0.301
			c0.233,0.354,0.407,0.778,0.717,1.041c0.343,0.29,0.808,0.44,1.227,0.638c1.771,0.834,2.679,1.812,0.925,3.63
			c-0.32,0.332-0.01,1.27,0.009,1.928c0.633-0.186,1.425-0.192,1.872-0.589c1.645-1.458,3.134-0.443,4.652,0.136
			c0.394,0.15,0.713,0.494,1.066,0.749c0.118-0.617,0.413-1.267,0.311-1.845c-0.155-0.881-1.086-2.034-0.791-2.496
			c0.536-0.836,1.753-1.221,2.648-1.848C107.219,113.381,107.531,112.969,108.153,112.347z M100.873,50.786
			c-0.287,0.427-0.696,0.824-0.854,1.304c-0.907,2.76-0.887,2.771-3.476,2.906c-0.498,0.026-1.003-0.033-1.497,0.018
			c-0.296,0.031-0.579,0.2-0.867,0.308c0.116,0.235,0.181,0.525,0.358,0.697c0.705,0.681,1.351,1.696,2.19,1.906
			c1.95,0.489,1.595,1.139,0.607,2.314c-0.348,0.415-0.436,1.279-0.269,1.822c0.126,0.409,0.95,0.965,1.286,0.864
			c0.565-0.169,1.037-0.767,1.462-1.258c0.863-0.997,1.63-0.899,2.428,0.062c0.317,0.383,0.646,0.824,1.07,1.031
			c0.372,0.181,1.035,0.255,1.296,0.041c0.292-0.237,0.367-0.853,0.366-1.304c0-0.451-0.079-1.013-0.351-1.333
			c-1.032-1.216-1.192-1.98,0.747-2.206c0.397-0.047,0.779-0.571,1.091-0.94c0.469-0.556,0.871-1.168,1.301-1.757
			c-0.629-0.088-1.267-0.285-1.888-0.243c-2.543,0.169-4.23-0.517-3.91-3.523C101.979,51.358,101.473,51.166,100.873,50.786z
			 M187.235,134.094c0.321-0.302,0.744-0.527,0.729-0.717c-0.062-0.778-0.006-1.771-0.454-2.275c-1.265-1.423-0.076-2.07,0.72-2.781
			c0.434-0.387,1.152-0.435,1.67-0.753c0.414-0.254,0.719-0.687,1.071-1.039c-0.407-0.177-0.826-0.523-1.222-0.501
			c-2.658,0.156-5.081,0.093-4.874-3.617c0.007-0.121-0.561-0.436-0.782-0.374c-0.396,0.108-1.021,0.405-1.05,0.676
			c-0.303,2.892-2.062,3.628-4.624,3.291c-0.164-0.021-0.349-0.047-0.496,0.007c-0.288,0.104-0.557,0.263-0.833,0.399
			c0.175,0.235,0.331,0.488,0.529,0.702c0.338,0.367,0.684,0.731,1.059,1.06c1.053,0.922,1.509,2.486,1.357,4.04
			c-0.057,0.575,0.234,1.224,0.52,1.758c0.052,0.096,1.043-0.054,1.264-0.345c1.403-1.854,2.729-2.28,4.237-0.112
			C186.283,133.838,186.863,133.92,187.235,134.094z M25.07,126.43c-0.478-0.16-0.92-0.479-1.274-0.4
			c-2.687,0.594-4.144-0.619-4.793-3.113c-0.04-0.153,0.017-0.39-0.072-0.46c-0.239-0.189-0.571-0.473-0.796-0.42
			c-0.405,0.095-1.097,0.432-1.083,0.627c0.213,3.093-1.647,3.517-4.091,3.361c-0.603-0.038-1.226,0.229-1.839,0.355
			c0.391,0.471,0.719,1.271,1.183,1.359c3.046,0.587,2.895,2.266,1.716,4.437c-0.14,0.258-0.158,0.806,0.008,0.959
			c0.4,0.37,0.921,0.654,1.442,0.823c0.151,0.049,0.501-0.381,0.7-0.638c1.1-1.42,2.218-2,3.485-0.178
			c0.187,0.27,0.431,0.613,0.707,0.68c0.422,0.102,0.923,0.075,1.332-0.067c0.178-0.062,0.272-0.542,0.293-0.84
			c0.033-0.488,0.178-1.21-0.077-1.438c-1.928-1.716-0.57-2.142,0.888-2.854C23.646,128.209,24.236,127.264,25.07,126.43z
			 M48.219,44.726c-0.514,0.986-1.018,1.632-1.17,2.351c-0.117,0.555,0.208,1.203,0.337,1.811c0.564-0.155,1.38-0.128,1.65-0.498
			c1.24-1.698,2.47-1.275,4.028-0.459c0.683,0.358,2.248,0.432,1.899-1.213c-0.473-2.233,1.117-3.233,2.326-4.505
			c0.228-0.239,0.466-0.468,0.699-0.701c-0.417-0.17-0.825-0.46-1.252-0.492c-3.714-0.281-3.863-0.38-4.738-3.585
			c-0.121-0.444-0.259-0.883-0.389-1.324c-0.467,0.394-1.314,0.766-1.338,1.185c-0.163,2.783-1.358,4.186-4.288,3.728
			c-0.256-0.04-0.559,0.216-0.839,0.335c0.138,0.233,0.236,0.504,0.419,0.693C46.448,42.966,47.354,43.859,48.219,44.726z
			 M157.01,41.49c-0.401-0.187-0.737-0.487-1.052-0.467c-2.445,0.163-4.234-0.378-3.97-3.383c0.011-0.122-0.129-0.29-0.242-0.385
			c-0.456-0.38-0.93-0.739-1.396-1.105c-0.116,0.446-0.166,0.926-0.362,1.334c-0.572,1.187-0.929,2.761-1.891,3.396
			c-0.93,0.615-2.506,0.254-3.798,0.32c0.851,1.051,1.791,2.044,2.511,3.178c0.304,0.479,0.255,1.269,0.169,1.89
			c-0.24,1.734,0.991,2.271,2,1.648c1.935-1.195,3.146-0.793,4.371,0.865c0.164,0.222,1.004,0.23,1.265,0.016
			c0.288-0.237,0.301-0.842,0.376-1.296c0.053-0.321,0.148-0.839-0.012-0.961c-1.898-1.453-0.656-2.442,0.453-3.478
			C155.913,42.613,156.367,42.133,157.01,41.49z M18.055,36.438c-0.498,0.786-0.881,1.192-1.038,1.672
			c-0.893,2.739-0.875,2.75-3.458,2.887c-0.495,0.026-0.996-0.031-1.487,0.017c-0.296,0.029-0.581,0.187-0.87,0.285
			c0.216,0.352,0.371,0.772,0.666,1.034c0.335,0.297,0.804,0.439,1.202,0.67c1.474,0.852,3.129,1.658,0.943,3.508
			c-0.082,0.069-0.035,0.322-0.008,0.482c0.103,0.617,0.221,1.23,0.334,1.846c0.351-0.243,0.677-0.538,1.057-0.72
			c2.462-1.178,2.485-1.209,5.419,0.246c0.585,0.29,1.01,0.995,1.166-0.198c0.105-0.812,0.038-1.651,0.016-2.478
			c-0.04-1.455-0.232-2.942,1.903-3.137c0.379-0.035,0.706-0.657,1.057-1.008c-0.557-0.182-1.165-0.606-1.663-0.503
			c-2.615,0.542-3.603-1.017-4.306-3.081C18.857,37.576,18.561,37.249,18.055,36.438z M191.16,41.401
			c-0.574-0.159-1.022-0.408-1.452-0.381c-2.652,0.173-5.041,0.073-4.825-3.604c0.007-0.123-0.552-0.438-0.774-0.381
			c-0.398,0.103-0.911,0.333-1.079,0.662c-0.792,1.544-0.758,3.842-3.551,3.34c-0.734-0.131-1.551,0.197-2.329,0.313
			c0.665,0.55,1.377,1.054,1.979,1.666c0.377,0.384,0.779,0.911,0.833,1.41c0.123,1.145-0.007,2.313,0.05,3.469
			c0.08,1.627,0.639,0.735,1.334,0.306c1.778-1.099,3.633-1.291,5.421,0.068c0.13,0.1,0.261,0.347,0.348,0.328
			c0.306-0.066,0.856-0.254,0.846-0.334c-0.102-0.765-0.081-1.691-0.516-2.238c-0.895-1.127-0.33-1.804,0.479-2.416
			c0.733-0.554,1.595-0.935,2.379-1.425C190.574,42.015,190.786,41.748,191.16,41.401z M162.998,119.105
			c0.142,0.271,0.251,0.748,0.429,0.774c0.429,0.063,1.058,0.084,1.31-0.171c1.461-1.479,2.853-2.829,4.884-0.757
			c0.093,0.095,1.349-0.607,1.312-0.782c-0.48-2.313,0.894-3.669,2.388-4.996c0.237-0.211,0.438-0.464,0.656-0.697
			c-0.429-0.158-0.848-0.411-1.289-0.458c-1.122-0.12-2.507,0.222-3.307-0.325c-0.707-0.482-0.777-1.909-1.107-2.927
			c-0.143-0.438-0.168-0.933-0.392-1.315c-0.061-0.104-0.8-0.013-0.978,0.198c-0.387,0.459-0.861,1.054-0.862,1.593
			c-0.002,2.577-1.652,2.806-3.609,2.778c-0.439-0.007-0.882,0.24-1.323,0.37c0.277,0.35,0.52,0.735,0.837,1.044
			c1.534,1.492,3.34,2.908,1.064,5.186C162.928,118.702,163,118.939,162.998,119.105z M41.013,112.487
			c-0.407-0.186-0.746-0.484-1.065-0.464c-2.448,0.158-4.217-0.394-3.977-3.394c0.018-0.229-0.366-0.499-0.581-0.734
			c-0.222-0.244-0.464-0.469-0.697-0.702c-0.231,0.271-0.557,0.505-0.676,0.818c-0.38,0.999-0.644,2.044-1.039,3.036
			c-0.146,0.367-0.504,0.87-0.818,0.911c-1.278,0.168-2.577,0.18-3.869,0.25c0.856,1.05,1.85,2.021,2.512,3.182
			c0.358,0.628,0.208,1.582,0.183,2.385c-0.037,1.171,0.922,1.676,1.489,1.135c2.178-2.077,3.42-0.487,4.872,0.877
			c0.241,0.227,1.015,0.222,1.274,0.004c0.286-0.239,0.504-1.097,0.338-1.258c-2.128-2.059-0.641-3.428,0.83-4.825
			C40.148,113.367,40.491,113.009,41.013,112.487z M96.99,33.635c0.061,0.17,0.27,0.752,0.479,1.335
			c0.353-0.333,0.676-0.708,1.064-0.992c1.915-1.4,3.025-1.351,5.115,0.165c0.334,0.242,0.704,0.436,1.057,0.651
			c0.098-0.459,0.347-0.948,0.264-1.371c-0.202-1.029-1.061-2.249-0.736-2.989c0.498-1.136,1.767-1.935,2.709-2.877
			c-1.197-0.234-2.598-0.168-3.526-0.798c-0.764-0.519-1.024-1.842-1.396-2.851c-0.247-0.669,0.425-1.777-0.896-1.896
			c-1.288-0.117-0.962,0.887-1.156,1.646c-0.517,2.027-1.122,4.077-4.012,3.367c-0.235-0.058-0.556,0.229-0.836,0.355
			c0.155,0.235,0.266,0.522,0.472,0.698C97.417,29.634,97.08,29.432,96.99,33.635z"/>
		<path style="fill-rule:evenodd;clip-rule:evenodd;fill:#B42A3B;" d="M501,203c0,7,0,14,0,21c-166.667,0-333.333,0-500,0
			c0-7,0-14,0-21C167.667,203,334.333,203,501,203z"/>
		<path style="fill-rule:evenodd;clip-rule:evenodd;fill:#B12234;" d="M501,244c0,6.333-0.022,12.667,0.025,19
			c0.007,0.862-0.156,1.108-1.027,1.022C499.008,263.925,498,264,497,264c-164,0-328,0-492,0c-1.333,0-3.187,0.521-3.854-0.146
			C0.479,263.187,1,261.333,1,260c0-5.333,0-10.667,0-16C167.667,244,334.333,244,501,244z"/>
		<path style="fill-rule:evenodd;clip-rule:evenodd;fill:#FDFBFC;" d="M501,244c-166.667,0-333.333,0-500,0c0-6.667,0-13.333,0-20
			c166.667,0,333.333,0,500,0C501,230.667,501,237.333,501,244z"/>
		<path style="fill-rule:evenodd;clip-rule:evenodd;fill:#FEFDFD;" d="M501,203c-166.667,0-333.333,0-500,0c0-6.667,0-13.333,0-20
			c166.667,0,333.333,0,500,0C501,189.667,501,196.333,501,203z"/>
		<path style="fill-rule:evenodd;clip-rule:evenodd;fill:#B12234;" d="M501,183c-166.667,0-333.333,0-500,0c0-6.667,0-13.333,0-20
			c166.667,0,333.333,0,500,0C501,169.667,501,176.333,501,183z"/>
		<path style="fill-rule:evenodd;clip-rule:evenodd;fill:#FDFCFC;" d="M501,163c-166.667,0-333.333,0-500,0c0-6.667,0-13.333,0-20
			c66.667,0,133.333,0,200,0c100,0,200,0,300,0C501,149.667,501,156.333,501,163z"/>
		<path style="fill-rule:evenodd;clip-rule:evenodd;fill:#B42A3B;" d="M501,143c-100,0-200,0-300,0c0-7,0-14,0-21c100,0,200,0,300,0
			C501,129,501,136,501,143z"/>
		<path style="fill-rule:evenodd;clip-rule:evenodd;fill:#B42A3B;" d="M201,62c0-7,0-14,0-21c100,0,200,0,300,0c0,7,0,14,0,21
			C401,62,301,62,201,62z"/>
		<path style="fill-rule:evenodd;clip-rule:evenodd;fill:#B12234;" d="M201,21c0-6.667,0-13.333,0-20c98.5,0,197,0,295.5,0
			c1.167,0,2.34,0.073,3.498-0.024c0.871-0.072,1.034,0.162,1.027,1.024C500.978,8.333,501,14.667,501,21C401,21,301,21,201,21z"/>
		<path style="fill-rule:evenodd;clip-rule:evenodd;fill:#FDFBFC;" d="M201,21c100,0,200,0,300,0c0,6.667,0,13.333,0,20
			c-100,0-200,0-300,0C201,34.333,201,27.667,201,21z"/>
		<path style="fill-rule:evenodd;clip-rule:evenodd;fill:#FDFCFC;" d="M501,122c-100,0-200,0-300,0c0-6.667,0-13.333,0-20
			c100,0,200,0,300,0C501,108.667,501,115.333,501,122z"/>
		<path style="fill-rule:evenodd;clip-rule:evenodd;fill:#B12234;" d="M501,102c-100,0-200,0-300,0c0-6.667,0-13.333,0-20
			c100,0,200,0,300,0C501,88.667,501,95.333,501,102z"/>
		<path style="fill-rule:evenodd;clip-rule:evenodd;fill:#FEFDFD;" d="M501,82c-100,0-200,0-300,0c0-6.667,0-13.333,0-20
			c100,0,200,0,300,0C501,68.667,501,75.333,501,82z"/>
		<path style="fill-rule:evenodd;clip-rule:evenodd;fill:#E5E5EB;" d="M130,90.041c-0.652-1.271,1.955-2.772-0.406-4.052
			c-0.984-0.533-1.562-1.816-2.325-2.758c1.134-0.077,2.279-0.081,3.399-0.249c1.694-0.254,2.504-1.251,2.374-3.03
			c-0.021-0.297,0.488-0.855,0.802-0.894c0.357-0.044,0.883,0.271,1.13,0.591c0.368,0.476,0.708,1.069,0.793,1.651
			c0.199,1.369,0.833,1.946,2.238,1.717c0.649-0.105,1.347-0.108,1.988,0.018c0.371,0.072,0.9,0.458,0.948,0.766
			c0.056,0.364-0.225,0.937-0.542,1.178c-2.802,2.129-2.787,2.104-1.75,5.207c0.169,0.505-0.012,1.128-0.031,1.696
			c-0.451-0.039-1.167,0.089-1.312-0.142c-1.701-2.696-4.031-1.929-5.805-0.602C129.004,93.006,130.285,90.656,130,90.041z"/>
		<path style="fill-rule:evenodd;clip-rule:evenodd;fill:#E5E5EB;" d="M38.627,92.127c-0.395-0.396-0.497-0.537-0.633-0.627
			c-2.307-1.512-4.577-2.589-6.573,0.48c-0.092,0.142-0.792,0.125-0.92-0.041c-0.269-0.348-0.534-0.886-0.45-1.268
			c0.092-0.419,0.796-0.717,0.858-1.124c0.266-1.737,0.582-3.529-1.899-4.112c-0.432-0.102-0.849-0.973-0.928-1.537
			c-0.033-0.233,0.806-0.771,1.306-0.862c1.107-0.204,2.612,0.191,3.286-0.408c0.807-0.718,0.908-2.222,1.331-3.38
			c0.151-0.414,0.35-0.812,0.527-1.216c0.156,0.435,0.284,0.883,0.474,1.302c0.556,1.229,0.833,2.91,1.792,3.533
			c0.937,0.609,2.58,0.093,3.909,0.156c0.438,0.021,0.862,0.31,1.293,0.477c-0.235,0.235-0.471,0.471-0.707,0.706
			c-0.235,0.236-0.473,0.47-0.706,0.707c-2.092,2.137-2.07,2.134-1.611,5.512C39.041,90.901,38.781,91.423,38.627,92.127z"/>
		<path style="fill-rule:evenodd;clip-rule:evenodd;fill:#E5E5EB;" d="M171.475,92c-0.64,0-0.909,0.066-0.957-0.01
			c-1.977-3.076-4.249-2.105-6.53-0.46c-1.015,0.732-0.941-0.044-0.977-0.64c-0.028-0.485-0.158-1.216,0.096-1.426
			c1.525-1.26,0.862-2.163-0.283-3.168c-0.993-0.872-1.879-1.867-2.812-2.808c1.429-0.163,2.855-0.438,4.286-0.455
			c1.198-0.014,1.849-0.213,1.751-1.619c-0.038-0.54,0.386-1.17,0.736-1.661c0.308-0.431,0.775-1.258,1.229-0.015
			c0.263,0.719,0.883,1.374,0.937,2.088c0.094,1.236,0.806,1.194,1.661,1.178c1.163-0.021,2.329-0.031,3.49,0.015
			c0.279,0.011,0.549,0.263,0.823,0.404c-0.185,0.235-0.357,0.48-0.556,0.702c-0.222,0.248-0.431,0.538-0.709,0.698
			c-2.48,1.428-4,3.084-1.706,5.924C172.112,90.945,171.604,91.681,171.475,92z"/>
		<path style="fill-rule:evenodd;clip-rule:evenodd;fill:#E6E6EC;" d="M91.945,12.556c-0.589,0.589-1.152,1.206-1.771,1.762
			c-2.884,2.589-2.434,1.698-1.603,4.772c0.146,0.54,0.097,1.134,0.137,1.702c-0.568-0.097-1.43,0.01-1.66-0.322
			c-1.937-2.791-3.902-0.905-5.872-0.152c-0.341,0.131-0.705,0.202-1.058,0.301c-0.04-0.317-0.128-0.638-0.106-0.949
			c0.033-0.471-0.013-1.064,0.248-1.382c1.624-1.979,0.836-3.031-1.244-3.824c-0.568-0.217-0.969-0.893-1.422-1.38
			c-0.19-0.204-0.319-0.466-0.476-0.701c0.28-0.127,0.555-0.348,0.842-0.364c0.83-0.05,1.668-0.069,2.496-0.007
			c1.655,0.126,2.953,0.046,2.629-2.27c-0.066-0.473,0.972-1.099,1.501-1.654c0.471,0.638,1.415,1.349,1.33,1.899
			c-0.34,2.192,0.911,2.111,2.374,2.025c0.996-0.06,2-0.045,2.995,0.014C91.515,12.039,91.726,12.37,91.945,12.556z"/>
		<path style="fill-rule:evenodd;clip-rule:evenodd;fill:#E6E6EC;" d="M124.944,12.556c-0.707,0.707-1.292,1.716-2.145,2.058
			c-1.903,0.765-2.52,1.667-1.242,3.493c0.331,0.475,0.386,1.193,0.42,1.809c0.038,0.652,0.001,1.294-0.988,0.604
			c-2.271-1.585-4.564-2.618-6.561,0.461c-0.094,0.144-0.794,0.13-0.923-0.036c-0.271-0.346-0.556-0.895-0.462-1.266
			c0.185-0.732,0.835-1.379,0.908-2.1c0.121-1.188,0.486-2.61-1.59-2.807c-0.639-0.061-1.195-1.086-1.769-1.689
			c-0.191-0.202-0.318-0.466-0.476-0.701c0.28-0.127,0.556-0.348,0.842-0.364c0.83-0.05,1.669-0.069,2.496-0.007
			c1.655,0.126,2.953,0.046,2.63-2.27c-0.065-0.473,0.972-1.099,1.501-1.654c0.471,0.638,1.415,1.349,1.33,1.899
			c-0.34,2.192,0.911,2.111,2.373,2.025c0.995-0.06,1.999-0.045,2.995,0.014C124.515,12.039,124.726,12.37,124.944,12.556z"/>
		<path style="fill-rule:evenodd;clip-rule:evenodd;fill:#F0F0F3;" d="M187.648,105.687c-0.862-0.294-1.652-0.315-1.978-0.716
			c-1.787-2.195-3.993,0.625-5.022-0.167s-0.818-3.17-1.212-4.838c-0.064-0.274-0.419-0.51-0.685-0.701
			c-0.662-0.48-2.354-0.16-1.648-1.626c0.245-0.51,1.693-0.627,2.582-0.603c2.191,0.062,3.4-0.723,3.353-3.07
			c-0.006-0.316,0.478-0.865,0.788-0.907c0.36-0.049,1.134,0.368,1.122,0.54c-0.286,4.042,2.587,3.341,4.988,3.433
			c0.362,0.015,0.942,0.401,1.005,0.702c0.077,0.376-0.309,1.219-0.442,1.208c-1.431-0.112-1.895,1.146-2.755,1.818
			c-0.967,0.757-1.023,1.484-0.125,2.438c0.36,0.383,0.334,1.19,0.353,1.81C187.98,105.307,187.686,105.615,187.648,105.687z"/>
		<path style="fill-rule:evenodd;clip-rule:evenodd;fill:#F0F0F4;" d="M147,105c0-0.66-0.067-1.328,0.013-1.979
			c0.212-1.706,0.076-3.131-2.015-3.571c-0.389-0.082-0.836-0.633-0.948-1.05c-0.102-0.375,0.091-1.044,0.388-1.257
			c0.334-0.238,0.971-0.25,1.404-0.121c2.474,0.738,3.232-1.103,4.147-2.695c0.225-0.391,0.318-0.856,0.472-1.288
			c0.467,0.44,0.978,0.846,1.379,1.339c0.171,0.209,0.194,0.617,0.146,0.913c-0.284,1.769,0.8,1.798,2.065,1.721
			c0.986-0.06,1.986-0.08,2.965,0.025c0.351,0.037,0.88,0.462,0.926,0.77c0.054,0.364-0.226,0.923-0.54,1.165
			c-0.599,0.462-1.391,0.676-1.985,1.143c-1.238,0.972-2.258,2.041-0.438,3.469c0.16,0.125,0.067,0.641,0.011,0.961
			c-0.081,0.45-0.239,0.888-0.364,1.331c-0.233-0.15-0.452-0.334-0.702-0.444c-1.117-0.488-2.213-1.196-3.378-1.348
			c-0.796-0.103-1.693,0.584-2.545,0.917C147.667,105,147.333,105,147,105z"/>
		<path style="fill-rule:evenodd;clip-rule:evenodd;fill:#F0F0F4;" d="M54,105c-1.885-1.931-3.724-0.603-5.576,0.072
			c-0.46,0.168-0.932,0.303-1.399,0.453c-0.008-0.492-0.055-0.986-0.011-1.474c0.026-0.294,0.107-0.682,0.31-0.846
			c1.431-1.155,0.528-2.001-0.393-2.741c-0.716-0.575-1.609-0.927-2.335-1.491c-0.313-0.244-0.593-0.803-0.539-1.167
			c0.046-0.308,0.57-0.72,0.927-0.771c0.809-0.115,1.647-0.076,2.469-0.027c1.591,0.093,3.035,0.122,2.593-2.22
			c-0.06-0.314,0.495-0.765,0.796-1.125c0.463-0.553,0.874-0.97,1.184,0.167c0.156,0.573,0.831,1.058,0.857,1.604
			c0.062,1.252,0.534,1.729,1.784,1.583c0.814-0.094,1.65-0.055,2.472,0.003c0.277,0.02,0.746,0.255,0.765,0.431
			c0.047,0.434,0.035,1.017-0.218,1.318C55.014,101.962,55,101.95,55,105C54.667,105,54.333,105,54,105z"/>
		<path style="fill-rule:evenodd;clip-rule:evenodd;fill:#F0F0F3;" d="M17.76,92.757c0.525,0.367,1.207,0.639,1.191,0.863
			c-0.239,3.503,2.076,3.503,4.51,3.382c0.331-0.016,0.9-0.105,0.953,0.016c0.223,0.514,0.292,1.094,0.418,1.65
			c-3.04,0.592-3.005,2.842-2.844,5.201c0.083,1.201-1.02,1.545-1.535,0.976c-1.985-2.196-3.464,0.141-5.152,0.375
			c-0.37,0.051-0.706,0.344-1.057,0.525c-0.082-0.463-0.195-0.924-0.234-1.391c-0.026-0.312-0.069-0.791,0.106-0.928
			c1.578-1.243,0.862-2.237-0.331-3.115c-0.742-0.546-1.647-0.878-2.364-1.45c-0.296-0.237-0.375-0.85-0.382-1.295
			c-0.003-0.185,0.423-0.51,0.682-0.54c0.654-0.079,1.326-0.066,1.985-0.02c2.208,0.158,3.389-0.725,3.325-3.062
			C17.023,93.601,17.448,93.244,17.76,92.757z"/>
		<path style="fill-rule:evenodd;clip-rule:evenodd;fill:#E7E7ED;" d="M67.94,78.913c0.438,0.228,0.958,0.386,0.95,0.511
			c-0.234,3.751,2.242,3.735,4.873,3.604c0.39-0.02,0.799,0.331,1.199,0.51c-0.235,0.235-0.471,0.471-0.706,0.706
			c-0.588,0.588-1.103,1.287-1.781,1.741c-1.3,0.87-1.404,1.738-0.526,3.019c0.311,0.453,0.083,1.3,0.035,1.962
			c-0.021,0.294-0.204,0.576-0.313,0.863c-0.235-0.121-0.567-0.18-0.69-0.372c-0.943-1.478-2.389-1.633-3.899-1.441
			c-2.946,0.372-3.057,0.406-3.044-2.01c0.009-1.784-0.718-2.672-2.395-3.051c-0.284-0.063-0.627-0.748-0.585-1.104
			c0.037-0.313,0.558-0.59,0.898-0.837c0.109-0.079,0.326-0.03,0.49-0.01c2.561,0.324,4.343-0.381,4.595-3.313
			C67.067,79.391,67.663,79.141,67.94,78.913z"/>
		<path style="fill-rule:evenodd;clip-rule:evenodd;fill:#E6E6EC;" d="M108.061,83.674c-0.148,0.498-0.194,1.031-0.332,1.056
			c-2.861,0.518-2.878,2.614-2.728,4.812c0.093,1.368-0.459,1.807-1.736,1.224c-0.56-0.255-1.156-0.78-1.675-0.712
			c-1.381,0.179-2.729,0.614-4.09,0.947c-0.167-1.43-0.277-2.87-0.535-4.283c-0.076-0.416-0.645-0.717-0.862-1.136
			c-0.48-0.927-2.801-0.168-1.997-1.993c0.216-0.489,1.733-0.585,2.643-0.553c2.268,0.08,3.385-0.817,3.294-3.161
			c-0.011-0.28,0.527-0.671,0.89-0.84c0.203-0.094,0.826,0.164,0.825,0.26c-0.032,3.859,2.545,3.895,5.327,3.74
			C107.414,83.017,107.77,83.474,108.061,83.674z"/>
		<path style="fill-rule:evenodd;clip-rule:evenodd;fill:#E7E7ED;" d="M180.933,20.232c-0.368-0.404-0.843-0.686-0.894-1.029
			c-0.12-0.815,0.079-1.683-0.074-2.486c-0.14-0.738-0.564-1.424-0.878-2.127c-0.425-0.954-2.783-0.177-1.98-2.001
			c0.215-0.489,1.818-0.747,2.625-0.526c2.534,0.695,2.098-1.913,3.25-2.713c0.421-0.293,0.629-0.891,0.935-1.35
			c0.361,0.402,1.035,0.806,1.033,1.207c-0.012,2.604,1.654,2.783,3.633,2.822c1.388,0.028,1.996,1.078,1.112,1.672
			c-2.098,1.41-1.611,3.407-1.73,5.337c-0.021,0.336-0.675,0.963-0.773,0.915C185.104,18.938,183.056,18.189,180.933,20.232z"/>
		<path style="fill-rule:evenodd;clip-rule:evenodd;fill:#F0F0F3;" d="M141.213,27.006c-0.385,0.498-0.623,0.912-0.957,1.224
			c-2.038,1.9-2.107,1.89-2.227,4.451c-0.052,1.104-0.901,1.83-1.411,1.253c-1.922-2.173-3.484,0.041-5.184,0.151
			c-0.477,0.031-0.938,0.289-1.407,0.442c-0.009-0.493-0.057-0.99-0.013-1.479c0.026-0.295,0.111-0.682,0.315-0.848
			c1.437-1.173,0.498-2.016-0.416-2.751c-0.716-0.576-1.625-0.912-2.352-1.479c-0.312-0.244-0.57-0.835-0.504-1.205
			c0.055-0.304,0.604-0.682,0.974-0.732c0.813-0.11,1.66-0.104,2.479-0.02c1.739,0.18,2.916-0.11,2.537-2.304
			c-0.054-0.312,0.496-0.812,0.869-1.084c0.252-0.185,0.685-0.124,1.036-0.173c-0.317,4.31,2.788,3.465,5.311,3.586
			C140.568,26.055,140.846,26.615,141.213,27.006z"/>
		<path style="fill-rule:evenodd;clip-rule:evenodd;fill:#F0F0F3;" d="M71.781,34.875c-0.971-0.398-1.891-0.502-2.34-1.018
			c-0.931-1.066-1.962-0.971-3.089-0.698c-0.695,0.168-1.369,0.424-2.052,0.641c-0.1-0.621-0.368-1.271-0.269-1.859
			c0.309-1.833-0.337-2.933-2.097-3.582c-0.442-0.163-0.912-1.035-0.879-1.551c0.081-1.281,1.207-0.683,1.92-0.799
			c0.323-0.053,0.662-0.02,0.993-0.007c1.956,0.073,3.106-0.681,3.06-2.82c-0.008-0.366,0.353-0.739,0.544-1.109
			c0.352,0.352,0.781,0.655,1.032,1.068c0.231,0.381,0.383,0.88,0.373,1.322c-0.022,0.929,0.077,1.637,1.266,1.544
			c0.494-0.039,1-0.058,1.49,0.004c1.093,0.135,2.893,0.004,3.141,0.553c0.948,2.094-1.674,1.202-2.373,2.275
			c-0.904,1.389-2.207,2.29-0.559,4.014C72.271,33.197,71.846,34.264,71.781,34.875z"/>
		<path style="fill-rule:evenodd;clip-rule:evenodd;fill:#E6E6EC;" d="M54.404,20.202c-1.64-0.717-2.712-1.87-4.302-0.861
			c-0.909,0.577-2.04,0.805-3.071,1.19c-0.099-1.147-0.173-2.252,0.92-3.102c0.128-0.1-0.297-1.167-0.674-1.607
			c-0.856-1-1.853-1.878-2.767-2.83c-0.165-0.172-0.21-0.458-0.311-0.691c0.289-0.101,0.573-0.272,0.866-0.287
			c0.823-0.039,1.658-0.09,2.473,0.002c1.768,0.199,2.889-0.168,2.483-2.308c-0.083-0.44-0.043-1.065,0.216-1.362
			c0.239-0.273,0.967-0.423,1.266-0.252c0.302,0.173,0.284,0.838,0.506,1.23c0.908,1.604,1.663,3.395,4.151,2.72
			c0.628-0.171,1.819-0.448,1.78,0.872c-0.011,0.372-0.675,0.868-1.141,1.06c-2.505,1.027-1.643,3.195-1.823,5.032
			C54.937,19.415,54.608,19.793,54.404,20.202z"/>
		<path style="fill-rule:evenodd;clip-rule:evenodd;fill:#E7E7ED;" d="M18.189,7.74c0.337,0.49,0.677,0.802,0.793,1.183
			c0.657,2.144,1.701,3.68,4.311,3.087c0.317-0.072,0.689-0.085,0.99,0.013c0.271,0.088,0.681,0.372,0.676,0.56
			c-0.013,0.446-0.19,1.252-0.378,1.275c-2.831,0.346-2.662,2.381-2.583,4.393c0.084,2.153-0.615,2.036-2.29,1.116
			c-0.924-0.508-2.458-0.165-3.64,0.115c-1.994,0.473-1.977,0.581-2.064-1.481c-0.028-0.665-0.018-1.332-0.001-1.998
			c0.038-1.558-2.893-1.891-1.762-3.535c0.506-0.736,2.427-0.365,3.56-0.842c1.186-0.499,1.301-1.735,1.25-2.961
			C17.041,8.413,17.682,8.136,18.189,7.74z"/>
		<path style="fill-rule:evenodd;clip-rule:evenodd;fill:#EFEFF3;" d="M120.281,105.448c-2.327-2.201-4.033-1.729-5.591,0.298
			c-0.184,0.239-0.999,0.288-1.27,0.087c-0.294-0.219-0.391-0.835-0.383-1.274c0.005-0.243,0.506-0.442,0.604-0.724
			c0.664-1.907,0.959-3.655-1.654-4.421c-0.44-0.128-0.928-0.991-0.936-1.521c-0.018-1.31,1.182-1.014,1.811-0.849
			c2.482,0.65,3.267-1.076,4.13-2.739c0.21-0.402,0.326-0.854,0.485-1.282c0.467,0.451,0.978,0.868,1.379,1.372
			c0.168,0.211,0.166,0.615,0.133,0.921c-0.131,1.205,0.21,1.853,1.592,1.707c0.973-0.104,1.979-0.076,2.943,0.069
			c0.216,0.032,0.558,0.906,0.424,1.211c-0.245,0.562-0.731,1.079-1.237,1.456c-1.455,1.087-2.003,2.467-1.744,4.256
			C121.015,104.348,120.634,104.743,120.281,105.448z"/>
		<path style="fill-rule:evenodd;clip-rule:evenodd;fill:#E6E6EC;" d="M150.574,8.074c0.471,0.471,1.388,0.995,1.339,1.403
			c-0.284,2.36,0.939,2.74,2.854,2.537c0.823-0.088,1.667-0.057,2.49,0.025c0.145,0.015,0.421,0.703,0.322,0.825
			c-0.522,0.642-1.086,1.282-1.746,1.773c-1.631,1.215-2.316,2.491-0.886,4.369c0.259,0.34-0.166,1.2-0.275,1.82
			c-0.504-0.275-0.98-0.634-1.518-0.812c-1.175-0.388-2.42-1.061-3.565-0.939c-2.53,0.268-2.602,0.437-2.562-1.572
			c0.035-1.812-0.277-3.2-2.385-3.552c-0.269-0.045-0.625-0.747-0.583-1.104c0.036-0.313,0.596-0.833,0.886-0.809
			c2.606,0.222,4.829-0.014,5.078-3.354C150.039,8.471,150.382,8.277,150.574,8.074z"/>
		<path style="fill-rule:evenodd;clip-rule:evenodd;fill:#EBEBF0;" d="M157.872,69.354c-0.144,0.235-0.248,0.499-0.429,0.69
			c-0.57,0.604-1.087,1.554-1.769,1.701c-2.732,0.591-1.933,1.907-1.005,3.489c0.236,0.404-0.041,1.11-0.083,1.678
			c-0.449-0.059-0.973,0.011-1.337-0.197c-1.674-0.956-3.24-1.257-4.818,0.233c-0.127,0.119-1.254-0.394-1.365-0.773
			c-0.224-0.765,0.052-1.663-0.101-2.464c-0.141-0.735-0.562-1.42-0.876-2.119c-0.427-0.952-2.766-0.178-1.984-1.989
			c0.21-0.487,1.702-0.513,2.619-0.585c2.303-0.181,2.342-0.185,3.277-3.596c0.122-0.445,0.268-0.885,0.402-1.327
			c0.47,0.405,1.162,0.728,1.354,1.237c0.273,0.725,0.257,1.592,0.223,2.392c-0.049,1.165,0.559,1.342,1.527,1.29
			c1.159-0.062,2.324-0.037,3.484,0.001C157.281,69.025,157.562,69.229,157.872,69.354z"/>
		<path style="fill-rule:evenodd;clip-rule:evenodd;fill:#E9E9EE;" d="M117.032,74.532c-0.491,0.803-0.919,1.666-1.535,2.362
			c-0.118,0.134-0.986-0.373-1.488-0.626c-0.066-0.034,0.01-0.317-0.012-0.481c-0.162-1.264-0.031-2.688-0.594-3.738
			c-0.451-0.841-1.758-1.215-2.665-1.824c-0.271-0.183-0.477-0.463-0.713-0.699c0.244-0.175,0.473-0.378,0.736-0.514
			c0.132-0.067,0.327-0.006,0.493-0.013c1.475-0.058,3.272,0.372,4.325-0.325c0.912-0.604,0.971-2.487,1.427-3.798
			c0.101-0.288,0.288-0.546,0.436-0.818c0.186,0.218,0.447,0.406,0.545,0.658c0.555,1.419,0.683,3.39,1.709,4.131
			c0.985,0.711,2.887,0.133,4.385,0.172c0.279,0.007,0.553,0.255,0.829,0.392c-0.176,0.236-0.338,0.483-0.531,0.704
			c-0.219,0.249-0.439,0.513-0.708,0.702c-0.878,0.62-2.104,1.021-2.587,1.858c-0.581,1.005,0.238,2.081,0.861,3.069
			c0.277,0.44-0.043,1.257-0.092,1.902c-0.472-0.235-0.943-0.468-1.413-0.707c-0.688-0.351-1.388-0.68-2.053-1.07
			C118.11,75.706,117.91,75.41,117.032,74.532z"/>
		<path style="fill-rule:evenodd;clip-rule:evenodd;fill:#EBEBF0;" d="M48.326,73.435c-0.429-0.556-0.704-1.071-1.121-1.419
			c-0.847-0.705-1.783-1.304-2.652-1.984c-0.193-0.151-0.265-0.457-0.393-0.692c0.285-0.112,0.566-0.308,0.856-0.323
			c0.828-0.044,1.666-0.085,2.487-0.001c1.735,0.176,2.913-0.097,2.537-2.303c-0.093-0.541,0.24-1.216,0.534-1.742
			c0.205-0.366,0.676-0.583,1.028-0.867c0.132,0.277,0.297,0.544,0.391,0.834c0.237,0.733,0.373,1.507,0.677,2.21
			c0.401,0.925,0.437,2.271,2.125,1.885c0.789-0.181,1.657-0.075,2.481-0.005c0.254,0.021,0.686,0.355,0.683,0.541
			c-0.007,0.445-0.178,1.252-0.363,1.275c-3.21,0.406-2.541,2.82-2.597,4.864c-0.04,1.427-0.694,1.732-1.84,0.941
			c-1.506-1.039-2.937-1.149-4.426,0.069c-0.296,0.242-0.877,0.135-1.327,0.188c-0.037-0.566-0.208-1.168-0.074-1.691
			C47.477,74.648,47.906,74.155,48.326,73.435z"/>
		<path style="fill-rule:evenodd;clip-rule:evenodd;fill:#E9E9EE;" d="M87.44,77c-0.395,0-0.649,0.071-0.716-0.011
			c-2.114-2.584-3.91-1.387-5.673,0.446c-0.182,0.188-0.464,0.279-0.7,0.416c-0.117-0.285-0.284-0.561-0.338-0.856
			c-0.059-0.322-0.15-0.762,0.007-0.981c2.183-3.043,0.567-4.573-2.192-5.708c-0.284-0.117-0.478-0.455-0.713-0.69
			c0.338-0.205,0.654-0.475,1.021-0.595c0.3-0.1,0.659-0.021,0.992-0.021c0.666,0,1.343-0.075,1.997,0.015
			c1.551,0.214,1.953-0.446,1.938-1.932c-0.009-0.857,0.573-1.737,0.977-2.563c0.053-0.109,0.63,0.023,0.958,0.086
			c0.031,0.006-0.042,0.329,0.011,0.476c0.478,1.301,0.623,3.186,1.554,3.737c1.11,0.658,2.899,0.155,4.393,0.196
			c0.292,0.008,0.578,0.199,0.867,0.307c-0.234,0.354-0.404,0.938-0.712,1.023C88.108,71.179,87.7,73.363,87.967,76
			C88.002,76.343,87.59,76.73,87.44,77z"/>
		<path style="fill-rule:evenodd;clip-rule:evenodd;fill:#ECECF0;" d="M183.805,64.795c0.621,0.358,1.133,0.531,1.122,0.664
			c-0.295,3.852,2.312,3.648,4.873,3.552c0.301-0.011,0.606,0.129,0.909,0.198c-0.158,0.353-0.246,0.768-0.49,1.045
			c-0.545,0.618-1.118,1.59-1.768,1.667c-1.906,0.224-1.833,0.869-0.901,2.182c0.333,0.469,0.357,1.186,0.429,1.8
			c0.032,0.279-0.095,0.773-0.273,0.84c-0.404,0.151-0.95,0.247-1.318,0.088c-0.425-0.183-0.761-0.635-1.066-1.023
			c-1.004-1.272-1.856-0.936-2.787,0.122c-0.4,0.456-0.983,0.808-1.553,1.029c-0.232,0.09-0.665-0.266-0.969-0.474
			c-0.077-0.053-0.036-0.319-0.008-0.48c0.435-2.506-0.346-4.501-2.45-5.973c-0.196-0.137-0.266-0.457-0.394-0.691
			c0.285-0.113,0.565-0.246,0.858-0.332c0.153-0.045,0.333-0.03,0.495-0.005c2.351,0.373,3.946-0.389,4.51-2.868
			C183.133,65.651,183.539,65.235,183.805,64.795z"/>
		<path style="fill-rule:evenodd;clip-rule:evenodd;fill:#ECECF0;" d="M17.783,64.442c0.66,0.731,1.129,1.009,1.187,1.354
			c0.45,2.695,2.074,3.574,4.638,3.23c0.412-0.056,0.872,0.251,1.31,0.39c-0.179,0.233-0.311,0.538-0.542,0.689
			c-2.195,1.436-2.611,3.511-2.422,5.962c0.092,1.2-0.872,1.072-1.686,0.688c-0.141-0.066-0.255-0.213-0.351-0.346
			c-1.255-1.738-2.468-1.795-3.836-0.06c-0.304,0.386-1.091,0.393-1.655,0.573c-0.142-0.602-0.394-1.205-0.387-1.805
			c0.005-0.413,0.332-0.848,0.582-1.228c0.715-1.088,0.593-1.594-0.816-1.968c-0.837-0.223-1.486-1.181-2.198-1.832
			c-0.207-0.189-0.338-0.461-0.504-0.694c0.275-0.133,0.542-0.355,0.827-0.38c0.655-0.058,1.32-0.036,1.979-0.016
			c1.9,0.06,3.147-0.559,3.123-2.742C17.025,65.785,17.412,65.305,17.783,64.442z"/>
		<path style="fill-rule:evenodd;clip-rule:evenodd;fill:#EFEFF3;" d="M140.899,55.6c-0.134,0.135-0.238,0.27-0.371,0.367
			c-2.005,1.49-2.99,3.361-2.565,5.954c0.196,1.2-1.027,1.464-1.553,0.884c-1.592-1.758-2.952-2.593-4.623-0.151
			c-0.189,0.276-0.982,0.427-1.284,0.259c-0.305-0.17-0.439-0.804-0.477-1.248c-0.039-0.457-0.04-1.131,0.236-1.367
			c1.728-1.477,0.284-2.303-0.64-3.124c-0.56-0.497-1.367-0.704-2.026-1.103c-0.218-0.132-0.321-0.454-0.478-0.689
			c0.281-0.127,0.552-0.328,0.844-0.364c0.492-0.061,0.998,0.005,1.496-0.021c2.617-0.131,2.61-0.138,3.547-2.827
			c0.151-0.435,0.32-0.893,0.602-1.242c0.264-0.326,0.688-0.524,1.041-0.778c0.117,0.284,0.251,0.562,0.349,0.854
			c0.245,0.731,0.479,1.467,0.708,2.204c0.334,1.072,0.593,2.143,2.176,1.821c0.799-0.162,1.662-0.064,2.489-0.001
			C140.561,55.042,140.725,55.4,140.899,55.6z"/>
		<path style="fill-rule:evenodd;clip-rule:evenodd;fill:#EFEFF3;" d="M67.643,50.113c0.464,0.503,1.319,1.012,1.292,1.467
			c-0.212,3.513,2.057,3.537,4.521,3.438c0.45-0.018,0.91,0.196,1.365,0.304c-0.352,0.472-0.626,1.044-1.077,1.386
			c-0.475,0.359-1.205,0.388-1.667,0.757c-0.934,0.747-1.794,1.549-0.413,2.787c0.365,0.327,0.437,1.268,0.269,1.812
			c-0.126,0.408-0.95,0.964-1.286,0.863c-0.565-0.169-1.037-0.767-1.462-1.258c-0.863-0.997-1.63-0.899-2.428,0.062
			c-0.317,0.383-0.642,0.828-1.066,1.04c-0.792,0.395-1.802,0.479-1.649-0.767c0.312-2.537-0.412-4.509-2.505-5.989
			c-0.189-0.133-0.243-0.457-0.36-0.692c0.289-0.107,0.599-0.347,0.862-0.303c3.517,0.586,5.03-1.02,4.987-4.435
			C67.025,50.434,67.42,50.277,67.643,50.113z"/>
		<path style="fill-rule:evenodd;clip-rule:evenodd;fill:#EFEFF3;" d="M141.226,112.274c-0.595,0.595-0.913,1.204-1.301,1.252
			c-2.015,0.25-2.05,1.606-1.929,3.118c0.026,0.328,0.011,0.66,0.003,0.99c-0.061,2.495-0.335,2.848-2.385,1.259
			c-1.797-1.393-2.455-0.561-3.568,0.498c-0.372,0.354-1.098,0.42-1.664,0.426c-0.123,0.001-0.16-0.881-0.398-1.252
			c-0.888-1.381,2.359-1.967,0.65-3.396c-0.824-0.69-1.84-1.147-2.717-1.782c-0.332-0.24-0.518-0.683-0.771-1.033
			c0.281-0.118,0.571-0.354,0.844-0.335c2.774,0.186,5.265,0.076,5.282-3.729c0.002-0.395,0.872-0.786,1.339-1.179
			c0.13,0.442,0.267,0.882,0.388,1.326c0.924,3.392,0.924,3.385,4.253,3.569C139.843,112.04,140.43,112.164,141.226,112.274z"/>
		<path style="fill-rule:evenodd;clip-rule:evenodd;fill:#F0F0F3;" d="M58.099,126c-0.37,0.596-0.459,0.905-0.665,1.046
			c-2.146,1.465-2.784,3.492-2.465,5.998c0.123,0.963-0.396,1.044-1.067,0.379c-0.208-0.206-0.556-0.264-0.815-0.427
			c-1.446-0.907-2.789-1.398-4.043,0.385c-0.262,0.372-1.092,0.345-1.661,0.501c-0.019-0.568-0.201-1.192-0.031-1.696
			c0.935-2.768,0.964-2.759-1.269-4.186c-0.526-0.336-1.079-0.638-1.571-1.018c-0.175-0.135-0.242-0.449-0.282-0.693
			c-0.012-0.075,0.229-0.272,0.357-0.276c0.832-0.025,1.666-0.04,2.498-0.007c1.736,0.067,2.708-0.695,2.939-2.462
			c0.078-0.592,0.389-1.168,0.669-1.712c0.145-0.282,0.455-0.479,0.691-0.715c0.206,0.336,0.476,0.651,0.597,1.016
			c0.099,0.301-0.066,0.688,0.034,0.988c0.826,2.493,1.232,2.778,3.985,2.876C56.616,126.019,57.235,126,58.099,126z"/>
		<path style="fill-rule:evenodd;clip-rule:evenodd;fill:#F0F0F3;" d="M154.554,134.308c-0.771-0.407-1.385-0.52-1.55-0.854
			c-1.289-2.61-3.051-0.839-4.478-0.372c-0.859,0.281-1.721,1.655-1.477-0.453c0.279-2.418-0.562-4.138-2.427-5.521
			c-0.226-0.168-0.357-0.462-0.533-0.697c0.276-0.137,0.574-0.424,0.826-0.388c3.337,0.477,5.213-0.714,5.109-4.313
			c-0.007-0.212,0.347-0.434,0.533-0.65c0.235,0.235,0.471,0.471,0.706,0.706c0.118,0.118,0.33,0.229,0.34,0.354
			c0.259,3.303,2.13,4.386,5.232,3.914c0.323-0.05,0.716,0.358,1.076,0.554c-0.235,0.235-0.471,0.471-0.707,0.707
			c-0.235,0.235-0.479,0.682-0.704,0.672c-1.404-0.062-2.131,0.806-2.462,1.922c-0.285,0.963-0.024,1.907,0.886,2.639
			C155.113,132.678,154.728,133.542,154.554,134.308z"/>
		<path style="fill-rule:evenodd;clip-rule:evenodd;fill:#EFEFF3;" d="M71.235,120.076c-0.485-0.183-0.925-0.208-1.033-0.41
			c-1.354-2.525-3.305-1.455-4.76-0.476c-1.385,0.934-1.511,0.711-1.445-0.7c0.022-0.494-0.06-1,0.015-1.484
			c0.268-1.739-0.003-3.099-2.028-3.569c-0.361-0.084-0.607-0.663-0.907-1.013c0.437-0.142,0.866-0.315,1.312-0.418
			c1.192-0.272,2.752,0.644,3.555-0.684c0.613-1.014,0.707-2.337,1.066-3.513c0.088-0.286,0.312-0.53,0.473-0.794
			c0.234,0.224,0.468,0.445,0.701,0.67c0.119,0.114,0.241,0.227,0.349,0.351c0.937,1.079-0.098,3.195,1.753,3.69
			c1.223,0.327,2.569,0.175,3.856,0.292c0.279,0.025,0.538,0.28,0.807,0.431c-0.2,0.233-0.375,0.495-0.604,0.694
			c-0.356,0.308-0.71,0.686-1.135,0.837c-2.046,0.731-3.112,1.691-1.243,3.749c0.247,0.271,0.136,0.99,0.001,1.445
			C71.86,119.536,71.462,119.812,71.235,120.076z"/>
		<path style="fill-rule:evenodd;clip-rule:evenodd;fill:#F2F2F5;" d="M108.153,112.347c-0.623,0.622-0.935,1.034-1.337,1.317
			c-0.895,0.627-2.112,1.012-2.648,1.848c-0.296,0.462,0.635,1.615,0.791,2.496c0.102,0.578-0.193,1.228-0.311,1.845
			c-0.353-0.255-0.672-0.599-1.066-0.749c-1.519-0.579-3.008-1.594-4.652-0.136c-0.447,0.396-1.239,0.403-1.872,0.589
			c-0.019-0.658-0.329-1.596-0.009-1.928c1.753-1.817,0.846-2.796-0.925-3.63c-0.418-0.197-0.883-0.348-1.227-0.638
			c-0.31-0.263-0.483-0.688-0.717-1.041c0.289-0.106,0.599-0.345,0.863-0.301c3.521,0.59,5.011-1.03,5.01-4.437
			c0-0.194,0.739-0.48,1.162-0.547c0.232-0.036,0.636,0.241,0.755,0.479c0.133,0.268-0.044,0.672,0.042,0.981
			c0.932,3.332,0.939,3.32,4.36,3.513C106.9,112.04,107.421,112.204,108.153,112.347z"/>
		<path style="fill-rule:evenodd;clip-rule:evenodd;fill:#F1F1F4;" d="M100.873,50.786c0.6,0.38,1.106,0.572,1.092,0.71
			c-0.321,3.007,1.367,3.692,3.91,3.523c0.622-0.042,1.259,0.155,1.888,0.243c-0.43,0.589-0.832,1.201-1.301,1.757
			c-0.312,0.369-0.693,0.894-1.091,0.94c-1.939,0.226-1.779,0.99-0.747,2.206c0.271,0.32,0.351,0.882,0.351,1.333
			c0,0.451-0.075,1.066-0.366,1.304c-0.261,0.214-0.924,0.14-1.296-0.041c-0.425-0.207-0.753-0.648-1.07-1.031
			c-0.798-0.962-1.565-1.06-2.428-0.062c-0.425,0.491-0.897,1.089-1.462,1.258c-0.336,0.101-1.16-0.455-1.286-0.864
			c-0.167-0.543-0.08-1.407,0.269-1.822c0.988-1.176,1.343-1.825-0.607-2.314c-0.839-0.21-1.485-1.226-2.19-1.906
			c-0.178-0.172-0.242-0.462-0.358-0.697c0.289-0.107,0.571-0.276,0.867-0.308c0.494-0.051,0.999,0.009,1.497-0.018
			c2.589-0.136,2.569-0.146,3.476-2.906C100.177,51.61,100.585,51.213,100.873,50.786z"/>
		<path style="fill-rule:evenodd;clip-rule:evenodd;fill:#F1F1F4;" d="M187.235,134.094c-0.372-0.174-0.952-0.256-1.179-0.582
			c-1.508-2.168-2.834-1.741-4.237,0.112c-0.221,0.291-1.212,0.44-1.264,0.345c-0.285-0.534-0.576-1.183-0.52-1.758
			c0.151-1.554-0.305-3.118-1.357-4.04c-0.375-0.328-0.721-0.692-1.059-1.06c-0.198-0.214-0.354-0.467-0.529-0.702
			c0.276-0.137,0.545-0.295,0.833-0.399c0.147-0.054,0.332-0.028,0.496-0.007c2.562,0.337,4.321-0.399,4.624-3.291
			c0.029-0.271,0.653-0.567,1.05-0.676c0.222-0.062,0.789,0.253,0.782,0.374c-0.207,3.71,2.216,3.773,4.874,3.617
			c0.396-0.022,0.814,0.324,1.222,0.501c-0.353,0.353-0.657,0.785-1.071,1.039c-0.518,0.318-1.236,0.366-1.67,0.753
			c-0.796,0.711-1.984,1.358-0.72,2.781c0.448,0.504,0.392,1.497,0.454,2.275C187.979,133.566,187.557,133.792,187.235,134.094z"/>
		<path style="fill-rule:evenodd;clip-rule:evenodd;fill:#F1F1F4;" d="M25.07,126.43c-0.834,0.834-1.424,1.779-2.273,2.193
			c-1.458,0.713-2.816,1.139-0.888,2.854c0.255,0.228,0.11,0.949,0.077,1.438c-0.021,0.298-0.115,0.777-0.293,0.84
			c-0.408,0.143-0.91,0.169-1.332,0.067c-0.276-0.066-0.52-0.41-0.707-0.68c-1.267-1.822-2.385-1.242-3.485,0.178
			c-0.199,0.257-0.549,0.687-0.7,0.638c-0.521-0.169-1.042-0.453-1.442-0.823c-0.166-0.153-0.148-0.701-0.008-0.959
			c1.179-2.171,1.33-3.85-1.716-4.437c-0.464-0.089-0.792-0.889-1.183-1.359c0.614-0.127,1.236-0.394,1.839-0.355
			c2.444,0.155,4.304-0.269,4.091-3.361c-0.014-0.195,0.678-0.532,1.083-0.627c0.225-0.053,0.558,0.23,0.796,0.42
			c0.089,0.07,0.033,0.307,0.072,0.46c0.65,2.494,2.106,3.707,4.793,3.113C24.15,125.951,24.592,126.27,25.07,126.43z"/>
		<path style="fill-rule:evenodd;clip-rule:evenodd;fill:#F0F0F4;" d="M48.219,44.726c-0.864-0.866-1.771-1.76-2.656-2.676
			c-0.183-0.189-0.282-0.46-0.419-0.693c0.281-0.119,0.583-0.375,0.839-0.335c2.93,0.458,4.125-0.944,4.288-3.728
			c0.024-0.419,0.872-0.791,1.338-1.185c0.13,0.441,0.269,0.88,0.389,1.324c0.875,3.205,1.024,3.304,4.738,3.585
			c0.427,0.032,0.835,0.322,1.252,0.492c-0.233,0.233-0.472,0.462-0.699,0.701c-1.209,1.271-2.799,2.271-2.326,4.505
			c0.349,1.645-1.216,1.571-1.899,1.213c-1.558-0.816-2.788-1.239-4.028,0.459c-0.271,0.37-1.086,0.343-1.65,0.498
			c-0.129-0.607-0.454-1.256-0.337-1.811C47.201,46.357,47.705,45.712,48.219,44.726z"/>
		<path style="fill-rule:evenodd;clip-rule:evenodd;fill:#F0F0F4;" d="M157.01,41.49c-0.643,0.643-1.097,1.123-1.578,1.573
			c-1.109,1.035-2.352,2.024-0.453,3.478c0.16,0.122,0.064,0.64,0.012,0.961c-0.075,0.454-0.088,1.059-0.376,1.296
			c-0.261,0.215-1.101,0.206-1.265-0.016c-1.226-1.658-2.437-2.061-4.371-0.865c-1.009,0.623-2.24,0.086-2-1.648
			c0.086-0.621,0.135-1.411-0.169-1.89c-0.72-1.134-1.66-2.127-2.511-3.178c1.292-0.066,2.868,0.295,3.798-0.32
			c0.962-0.636,1.318-2.21,1.891-3.396c0.196-0.408,0.246-0.888,0.362-1.334c0.467,0.366,0.94,0.726,1.396,1.105
			c0.113,0.095,0.253,0.263,0.242,0.385c-0.265,3.005,1.524,3.546,3.97,3.383C156.272,41.003,156.608,41.304,157.01,41.49z"/>
		<path style="fill-rule:evenodd;clip-rule:evenodd;fill:#F1F1F4;" d="M18.055,36.438c0.505,0.812,0.802,1.139,0.932,1.522
			c0.703,2.064,1.691,3.623,4.306,3.081c0.498-0.104,1.106,0.321,1.663,0.503c-0.351,0.351-0.677,0.973-1.057,1.008
			c-2.135,0.194-1.943,1.682-1.903,3.137c0.022,0.826,0.089,1.665-0.016,2.478c-0.156,1.193-0.581,0.488-1.166,0.198
			c-2.934-1.455-2.958-1.424-5.419-0.246c-0.38,0.182-0.706,0.477-1.057,0.72c-0.113-0.615-0.231-1.229-0.334-1.846
			c-0.026-0.16-0.073-0.413,0.008-0.482c2.186-1.85,0.531-2.656-0.943-3.508c-0.398-0.23-0.867-0.373-1.202-0.67
			c-0.295-0.262-0.449-0.683-0.666-1.034c0.29-0.099,0.574-0.256,0.87-0.285c0.492-0.048,0.992,0.01,1.487-0.017
			c2.583-0.137,2.565-0.147,3.458-2.887C17.174,37.63,17.557,37.224,18.055,36.438z"/>
		<path style="fill-rule:evenodd;clip-rule:evenodd;fill:#F1F1F4;" d="M191.16,41.401c-0.374,0.347-0.586,0.613-0.858,0.783
			c-0.784,0.49-1.646,0.871-2.379,1.425c-0.81,0.612-1.374,1.289-0.479,2.416c0.435,0.547,0.414,1.474,0.516,2.238
			c0.011,0.08-0.54,0.268-0.846,0.334c-0.087,0.019-0.218-0.229-0.348-0.328c-1.788-1.359-3.643-1.167-5.421-0.068
			c-0.695,0.43-1.254,1.321-1.334-0.306c-0.057-1.155,0.073-2.324-0.05-3.469c-0.054-0.499-0.456-1.026-0.833-1.41
			c-0.602-0.612-1.313-1.116-1.979-1.666c0.778-0.116,1.595-0.444,2.329-0.313c2.793,0.502,2.759-1.796,3.551-3.34
			c0.168-0.329,0.681-0.56,1.079-0.662c0.223-0.057,0.781,0.258,0.774,0.381c-0.216,3.678,2.173,3.777,4.825,3.604
			C190.138,40.993,190.586,41.242,191.16,41.401z"/>
		<path style="fill-rule:evenodd;clip-rule:evenodd;fill:#F4F4F6;" d="M170,34c-1.717-1.303-3.423-1.317-5.157-0.01
			c-0.455,0.344-1,0.568-1.504,0.849c-0.11-0.782-0.598-1.983-0.27-2.279c2.176-1.964-0.006-2.739-0.889-3.888
			c-0.344-0.446-0.633-0.936-0.947-1.405c0.461-0.089,0.928-0.275,1.383-0.25c2.139,0.118,3.385-0.604,3.451-2.99
			c0.019-0.651,0.859-1.279,1.323-1.917c0.352,0.611,0.8,1.188,1.037,1.842c0.797,2.198,2.063,3.582,4.647,3.073
			c0.241-0.048,0.549,0.242,0.825,0.376c-0.168,0.235-0.292,0.615-0.512,0.683c-3.252,0.996-2.266,3.678-2.389,5.917
			C170.667,34,170.333,34,170,34z"/>
		<path style="fill-rule:evenodd;clip-rule:evenodd;fill:#F4F4F6;" d="M31,34c0-0.996-0.098-2.005,0.023-2.986
			c0.171-1.381-0.312-2.019-1.703-2.266c-0.472-0.083-0.817-0.878-1.221-1.348c0.443-0.134,0.92-0.448,1.323-0.372
			c3.174,0.599,3.459-2.127,4.576-3.896c0.212-0.335,0.408-0.682,0.611-1.022c0.352,0.353,0.788,0.655,1.032,1.071
			c0.226,0.385,0.303,0.884,0.349,1.343c0.174,1.769,1.147,2.533,2.895,2.493c0.625-0.015,1.254,0.161,1.881,0.25
			c-0.432,0.587-0.856,1.18-1.297,1.76c-0.482,0.634-1.185,1.196-1.39,1.906c-0.115,0.398,0.79,1.005,0.86,1.565
			c0.096,0.756-0.169,1.559-0.279,2.341c-0.504-0.28-1.049-0.505-1.504-0.849C35.422,32.683,33.717,32.697,32,34
			C31.667,34,31.333,34,31,34z"/>
		<path style="fill-rule:evenodd;clip-rule:evenodd;fill:#F1F1F5;" d="M162.999,119.104c0.001-0.165-0.071-0.402,0.012-0.484
			c2.275-2.277,0.47-3.693-1.064-5.186c-0.317-0.309-0.56-0.694-0.837-1.044c0.441-0.13,0.884-0.377,1.323-0.37
			c1.957,0.027,3.607-0.201,3.609-2.778c0.001-0.539,0.476-1.134,0.862-1.593c0.178-0.211,0.917-0.302,0.978-0.198
			c0.224,0.383,0.249,0.877,0.392,1.315c0.33,1.018,0.4,2.444,1.107,2.927c0.8,0.547,2.185,0.205,3.307,0.325
			c0.441,0.047,0.86,0.3,1.289,0.458c-0.218,0.233-0.419,0.486-0.656,0.697c-1.494,1.327-2.868,2.683-2.388,4.996
			c0.036,0.175-1.22,0.877-1.312,0.782c-2.031-2.072-3.423-0.723-4.884,0.757c-0.252,0.255-0.881,0.234-1.31,0.171
			C163.249,119.854,163.14,119.377,162.999,119.104z"/>
		<path style="fill-rule:evenodd;clip-rule:evenodd;fill:#F1F1F4;" d="M41.013,112.487c-0.522,0.521-0.865,0.88-1.224,1.221
			c-1.471,1.397-2.958,2.767-0.83,4.825c0.166,0.161-0.052,1.019-0.338,1.258c-0.259,0.218-1.033,0.223-1.274-0.004
			c-1.451-1.364-2.694-2.954-4.872-0.877c-0.567,0.541-1.526,0.036-1.489-1.135c0.025-0.803,0.176-1.757-0.183-2.385
			c-0.662-1.161-1.656-2.132-2.512-3.182c1.292-0.07,2.59-0.082,3.869-0.25c0.314-0.041,0.672-0.544,0.818-0.911
			c0.396-0.992,0.659-2.037,1.039-3.036c0.119-0.313,0.444-0.548,0.676-0.818c0.233,0.233,0.476,0.458,0.697,0.702
			c0.214,0.235,0.599,0.506,0.581,0.734c-0.24,3,1.529,3.552,3.977,3.394C40.267,112.003,40.606,112.302,41.013,112.487z"/>
		<path style="fill-rule:evenodd;clip-rule:evenodd;fill:#F1F1F5;" d="M114,48c0.442-2.506-0.347-4.498-2.447-5.97
			c-0.196-0.138-0.264-0.457-0.392-0.691c0.286-0.113,0.562-0.273,0.858-0.326c0.322-0.057,0.663-0.002,0.994-0.015
			c2.123-0.078,2.112-0.084,3.205-2.694c0.118-0.283,0.51-0.442,0.676-0.719c0.28-0.467,0.48-0.981,0.715-1.476
			c0.13,0.444,0.2,0.918,0.403,1.326c0.413,0.829,0.991,1.584,1.335,2.438c0.904,2.247,3.987,0.041,4.324,1.786
			c0.208,1.075-2.701,1.822-2.621,3.746c0.036,0.871,0.656,1.707,0.922,2.586c0.069,0.229-0.123,0.657-0.332,0.821
			c-0.218,0.171-0.619,0.225-0.903,0.162c-0.283-0.063-0.596-0.282-0.767-0.523c-1.49-2.106-3.188-1.702-4.971-0.451
			C114.667,48,114.333,48,114,48z"/>
		<path style="fill-rule:evenodd;clip-rule:evenodd;fill:#F1F1F5;" d="M87,48c-1.783-1.251-3.444-1.628-5.002,0.428
			c-0.268,0.353-1.092,0.284-1.66,0.411c0.008-0.567-0.216-1.317,0.063-1.672c1.664-2.117-0.018-3.209-1.215-4.501
			c-0.379-0.409-0.639-0.93-0.953-1.399c0.461-0.089,0.948-0.319,1.379-0.243c2.322,0.412,3.094-1.086,3.739-2.854
			c0.261-0.718,0.688-1.375,1.039-2.06c0.352,0.611,0.771,1.195,1.039,1.842c0.411,0.992,0.434,2.501,1.14,2.924
			c0.855,0.513,2.252,0.102,3.413,0.141c0.289,0.01,0.571,0.21,0.856,0.323c-0.127,0.234-0.195,0.554-0.391,0.691
			C88.347,43.502,87.557,45.494,88,48C87.667,48,87.333,48,87,48z"/>
		<path style="fill-rule:evenodd;clip-rule:evenodd;fill:#F0F0F4;" d="M31,63c-0.066-2.383,0.65-4.998-2.051-6.582
			c-0.357-0.209-0.562-0.68-0.837-1.029c0.441-0.13,0.876-0.348,1.323-0.375c3.587-0.217,3.583-0.207,4.572-3.741
			c0.122-0.436,0.33-0.847,0.498-1.269c0.466,0.466,1.158,0.854,1.351,1.415c0.394,1.145,0.138,2.975,0.851,3.434
			C37.637,55.453,39.248,55,40.566,55c0.165,0,0.344-0.042,0.491,0.009c0.287,0.1,0.555,0.25,0.831,0.38
			c-0.159,0.233-0.309,0.473-0.48,0.696c-0.099,0.131-0.211,0.308-0.349,0.342C38.042,57.193,37.707,59.423,38,62
			c-0.333,0-0.667,0-1,0c-1.172-0.452-2.237-1.974-3.58-0.044C32.994,62.569,31.828,62.667,31,63z"/>
		<path style="fill-rule:evenodd;clip-rule:evenodd;fill:#EFEFF3;" d="M120,133c-1.173-0.452-2.237-1.974-3.58-0.044
			c-0.426,0.613-1.593,0.711-2.42,1.044c0-0.659-0.133-1.353,0.023-1.973c0.598-2.375-0.982-3.63-2.454-4.925
			c-0.392-0.346-0.97-0.479-1.462-0.71c0.605-0.131,1.205-0.327,1.817-0.376c0.819-0.065,1.656-0.093,2.471,0.001
			c1.338,0.153,1.636-0.438,1.662-1.675c0.015-0.693,0.621-1.368,0.938-2.062c0.19-0.415,0.336-0.851,0.501-1.276
			c0.168,0.423,0.318,0.854,0.508,1.266c0.318,0.693,0.92,1.368,0.939,2.063c0.034,1.219,0.295,1.844,1.651,1.685
			c0.813-0.096,1.65-0.065,2.47-0.002c0.613,0.048,1.215,0.241,1.82,0.369c-0.487,0.231-1.01,0.408-1.456,0.702
			c-2.145,1.412-2.842,3.439-2.429,5.913C120.667,133,120.333,133,120,133z"/>
		<path style="fill-rule:evenodd;clip-rule:evenodd;fill:#EFEFF3;" d="M81,133c0.274-2.789-0.118-5.195-3.375-6.02
			c-0.207-0.053-0.342-0.391-0.51-0.596c0.277-0.128,0.546-0.277,0.833-0.376c0.147-0.051,0.327,0,0.492-0.01
			c1.446-0.091,3.11,0.216,4.263-0.413c0.798-0.437,0.886-2.165,1.3-3.313c0.154-0.428,0.333-0.846,0.501-1.269
			c0.165,0.426,0.311,0.861,0.5,1.276c0.317,0.694,0.924,1.369,0.938,2.062c0.026,1.237,0.324,1.828,1.662,1.675
			c0.814-0.094,1.651-0.066,2.47-0.001c0.612,0.049,1.212,0.245,1.817,0.376c-0.492,0.23-1.01,0.42-1.473,0.699
			c-2.708,1.63-2.548,4.277-2.419,6.908c-0.828-0.333-1.994-0.431-2.42-1.044c-1.343-1.93-2.408-0.408-3.58,0.044
			C81.667,133,81.333,133,81,133z"/>
		<path style="fill-rule:evenodd;clip-rule:evenodd;fill:#F0F0F4;" d="M164,62c0.293-2.577-0.048-4.784-3.053-5.598
			c-0.345-0.093-0.561-0.664-0.836-1.014c0.44-0.13,0.874-0.313,1.324-0.374c0.486-0.065,0.989,0.015,1.481-0.021
			c0.953-0.069,2.046,0.07,2.797-0.365c0.401-0.232,0.132-1.504,0.312-2.271c0.137-0.58,0.476-1.123,0.784-1.646
			c0.162-0.275,0.453-0.474,0.687-0.707c0.168,0.258,0.361,0.503,0.493,0.777c0.063,0.135-0.026,0.335,0.017,0.488
			c0.971,3.539,0.973,3.527,4.56,3.744c0.447,0.027,0.883,0.245,1.323,0.375c-0.275,0.35-0.479,0.82-0.838,1.029
			C170.35,58.002,171.066,60.617,171,63c-0.827-0.333-1.994-0.431-2.42-1.044c-1.343-1.93-2.407-0.408-3.58,0.044
			C164.667,62,164.333,62,164,62z"/>
		<path style="fill-rule:evenodd;clip-rule:evenodd;fill:#F1F1F5;" d="M96.99,33.635c0.089-4.203,0.427-4.001-1.397-5.557
			c-0.206-0.176-0.317-0.463-0.472-0.698c0.28-0.127,0.601-0.413,0.836-0.355c2.89,0.71,3.495-1.34,4.012-3.367
			c0.194-0.759-0.132-1.763,1.156-1.646c1.322,0.119,0.65,1.228,0.896,1.896c0.371,1.009,0.632,2.332,1.396,2.851
			c0.928,0.63,2.33,0.563,3.526,0.798c-0.942,0.942-2.211,1.741-2.709,2.877c-0.325,0.74,0.534,1.96,0.736,2.989
			c0.083,0.423-0.166,0.912-0.264,1.371c-0.353-0.216-0.723-0.409-1.057-0.651c-2.09-1.516-3.2-1.565-5.115-0.165
			c-0.389,0.284-0.711,0.659-1.064,0.992C97.26,34.387,97.051,33.805,96.99,33.635z"/>
		<path style="fill-rule:evenodd;clip-rule:evenodd;fill:#F1F1F4;" d="M81,105c0.455-2.52-0.367-4.505-2.461-5.984
			c-0.189-0.134-0.244-0.457-0.361-0.693c0.289-0.107,0.584-0.324,0.864-0.305c2.475,0.168,4.207-0.405,4.025-3.438
			c-0.027-0.451,0.836-0.955,1.288-1.434c0.235,0.471,0.357,1.075,0.727,1.389c1.252,1.063,0.938,3.652,3.466,3.492
			c0.769-0.049,1.558,0.229,2.337,0.356c-0.699,0.539-1.457,1.019-2.073,1.638c-0.381,0.384-0.723,0.963-0.775,1.485
			C87.921,102.661,88,103.834,88,105c-0.333,0-0.667,0-1,0c-1.512-0.95-2.993-1.801-4.574-0.033C82.209,105.209,81.488,105,81,105z"
			/>
		<path style="fill-rule:evenodd;clip-rule:evenodd;fill:#B6B5C8;" d="M120,133c0.333,0,0.667,0,1,0
			c0.294,0.206,0.588,0.412,0.882,0.618c-0.252,0.127-0.605,0.428-0.738,0.35C120.718,133.721,120.375,133.333,120,133z"/>
		<path style="fill-rule:evenodd;clip-rule:evenodd;fill:#B6B5C8;" d="M81,133c0.333,0,0.667,0,1,0
			c-0.375,0.333-0.718,0.721-1.143,0.968c-0.133,0.078-0.486-0.223-0.739-0.35C80.412,133.412,80.706,133.206,81,133z"/>
		<path style="fill-rule:evenodd;clip-rule:evenodd;fill:#9493AF;" d="M147,105c0.333,0,0.667,0,1,0
			c-0.375,0.333-0.718,0.721-1.144,0.968c-0.133,0.078-0.486-0.223-0.738-0.35C146.412,105.412,146.706,105.206,147,105z"/>
		<path style="fill-rule:evenodd;clip-rule:evenodd;fill:#9E9EB7;" d="M87,105c0.333,0,0.667,0,1,0
			c0.294,0.206,0.588,0.412,0.882,0.618c-0.253,0.127-0.606,0.428-0.739,0.35C87.718,105.721,87.375,105.333,87,105z"/>
		<path style="fill-rule:evenodd;clip-rule:evenodd;fill:#9897B2;" d="M31,34c0.333,0,0.667,0,1,0
			c-0.375,0.333-0.718,0.721-1.143,0.968c-0.133,0.078-0.486-0.223-0.739-0.35C30.412,34.412,30.706,34.206,31,34z"/>
		<path style="fill-rule:evenodd;clip-rule:evenodd;fill:#9493AF;" d="M54,105c0.333,0,0.667,0,1,0
			c0.294,0.206,0.588,0.412,0.882,0.618c-0.253,0.127-0.606,0.428-0.739,0.35C54.718,105.721,54.375,105.333,54,105z"/>
		<path style="fill-rule:evenodd;clip-rule:evenodd;fill:#9897B2;" d="M170,34c0.333,0,0.667,0,1,0
			c0.294,0.206,0.588,0.412,0.882,0.618c-0.252,0.127-0.605,0.428-0.738,0.35C170.718,34.721,170.375,34.333,170,34z"/>
		<path style="fill-rule:evenodd;clip-rule:evenodd;fill:#A9A9BF;" d="M87,48c0.333,0,0.667,0,1,0
			c0.294,0.206,0.588,0.412,0.882,0.618c-0.253,0.127-0.606,0.428-0.739,0.35C87.718,48.721,87.375,48.333,87,48z"/>
		<path style="fill-rule:evenodd;clip-rule:evenodd;fill:#A9A9BF;" d="M114,48c0.333,0,0.667,0,1,0
			c-0.375,0.333-0.718,0.721-1.144,0.968c-0.133,0.078-0.486-0.223-0.738-0.35C113.412,48.412,113.706,48.206,114,48z"/>
		<path style="fill-rule:evenodd;clip-rule:evenodd;fill:#BCBCCD;" d="M37,62c0.333,0,0.667,0,1,0
			c0.294,0.206,0.588,0.412,0.882,0.618c-0.253,0.127-0.606,0.428-0.739,0.35C37.718,62.721,37.375,62.333,37,62z"/>
		<path style="fill-rule:evenodd;clip-rule:evenodd;fill:#BCBCCD;" d="M164,62c0.333,0,0.667,0,1,0
			c-0.375,0.333-0.718,0.721-1.144,0.968c-0.133,0.078-0.486-0.223-0.738-0.35C163.412,62.412,163.706,62.206,164,62z"/>
		<path style="fill-rule:evenodd;clip-rule:evenodd;fill:#9493AF;" d="M55.918,20.582c-0.116,0.115-0.279,0.328-0.316,0.308
			c-0.217-0.117-0.405-0.29-0.602-0.443c0.148-0.149,0.297-0.298,0.446-0.446C55.604,20.194,55.762,20.389,55.918,20.582z"/>
		<path style="fill-rule:evenodd;clip-rule:evenodd;fill:#EFEFF3;" d="M114,134.446c-0.197,0.153-0.395,0.308-0.593,0.461
			c-0.062-0.21-0.228-0.558-0.165-0.605c0.209-0.158,0.499-0.209,0.758-0.302C114,134.148,114,134.297,114,134.446z"/>
		<path style="fill-rule:evenodd;clip-rule:evenodd;fill:#EFEFF3;" d="M88.918,134.582c-0.116,0.115-0.279,0.328-0.316,0.308
			c-0.217-0.117-0.405-0.29-0.602-0.443c0.148-0.149,0.297-0.298,0.446-0.446C88.604,134.194,88.762,134.389,88.918,134.582z"/>
		<path style="fill-rule:evenodd;clip-rule:evenodd;fill:#F0F0F4;" d="M31,63.446c-0.197,0.153-0.395,0.308-0.592,0.461
			c-0.062-0.21-0.228-0.558-0.166-0.605C30.451,63.144,30.741,63.093,31,63C31,63.148,31,63.297,31,63.446z"/>
		<path style="fill-rule:evenodd;clip-rule:evenodd;fill:#F0F0F4;" d="M171.918,63.581c-0.115,0.116-0.279,0.329-0.316,0.309
			c-0.217-0.117-0.404-0.29-0.602-0.443c0.148-0.149,0.297-0.298,0.446-0.446C171.604,63.194,171.762,63.389,171.918,63.581z"/>
		<path style="fill-rule:evenodd;clip-rule:evenodd;fill:#9897B2;" d="M147,20.446c-0.197,0.153-0.395,0.308-0.593,0.461
			c-0.062-0.21-0.228-0.558-0.165-0.605c0.209-0.158,0.499-0.209,0.758-0.302C147,20.148,147,20.297,147,20.446z"/>
		<path style="fill-rule:evenodd;clip-rule:evenodd;fill:#ECECF0;" d="M180,77.446c-0.197,0.153-0.395,0.308-0.593,0.461
			c-0.062-0.21-0.228-0.558-0.165-0.605c0.209-0.158,0.499-0.209,0.758-0.302C180,77.148,180,77.297,180,77.446z"/>
		<path style="fill-rule:evenodd;clip-rule:evenodd;fill:#E7E7ED;" d="M64,91.446c-0.197,0.153-0.395,0.308-0.592,0.461
			c-0.062-0.21-0.228-0.558-0.166-0.605C63.451,91.144,63.741,91.093,64,91C64,91.148,64,91.297,64,91.446z"/>
		<path style="fill-rule:evenodd;clip-rule:evenodd;fill:#B6B5C8;" d="M81,105.446c-0.197,0.153-0.395,0.308-0.592,0.461
			c-0.062-0.21-0.228-0.558-0.166-0.605c0.208-0.158,0.499-0.209,0.758-0.302C81,105.148,81,105.297,81,105.446z"/>
		<path style="fill-rule:evenodd;clip-rule:evenodd;fill:#B6B5C8;" d="M121.918,105.582c-0.115,0.115-0.279,0.328-0.316,0.308
			c-0.217-0.117-0.404-0.29-0.602-0.443c0.148-0.149,0.297-0.298,0.446-0.446C121.604,105.194,121.762,105.389,121.918,105.582z"/>
	</g>
</g>
</svg>
